<svg width="504" height="504" viewBox="0 0 504 504" fill="none" xmlns="http://www.w3.org/2000/svg">
<path d="M251.016 3.9375C226.465 3.9375 206.463 23.94 206.463 48.4903C206.463 73.0209 226.268 93.0234 251.016 93.0234C275.369 93.0234 295.549 73.0209 295.549 48.4903C295.549 23.94 275.566 3.9375 251.016 3.9375ZM307.125 102.375H194.906C164.213 102.375 139.781 128.776 139.781 159.469V222.469H179.156V169.312C179.156 165.946 181.696 163.406 185.062 163.406C188.429 163.406 190.969 165.946 190.969 169.312V222.469H311.062V169.312C311.062 165.946 313.602 163.406 316.969 163.406C320.335 163.406 322.875 165.946 322.875 169.312V222.469H362.25V159.469C362.25 128.973 337.621 102.375 307.125 102.375ZM210.341 311.87C200.872 311.87 193.193 319.548 193.193 329.017C193.193 338.487 200.872 346.165 210.341 346.165C219.811 346.165 227.489 338.487 227.489 329.017C227.489 319.548 219.811 311.87 210.341 311.87ZM293.895 382.213C282.082 377.252 268.498 382.823 263.537 394.636C258.576 406.448 264.147 420.052 275.96 424.994C287.772 429.955 301.376 424.384 306.318 412.571C311.279 400.759 305.707 387.174 293.895 382.213ZM293.895 382.213C282.082 377.252 268.498 382.823 263.537 394.636C258.576 406.448 264.147 420.052 275.96 424.994C287.772 429.955 301.376 424.384 306.318 412.571C311.279 400.759 305.707 387.174 293.895 382.213ZM210.341 311.87C200.872 311.87 193.193 319.548 193.193 329.017C193.193 338.487 200.872 346.165 210.341 346.165C219.811 346.165 227.489 338.487 227.489 329.017C227.489 319.548 219.811 311.87 210.341 311.87ZM23.625 232.312V285.469H68.9062V500.062H433.125V285.469H480.375V232.312H23.625ZM166.871 323.623L178.192 321.713C179.018 318.012 180.475 314.547 182.444 311.437L175.79 302.105L183.428 294.466L192.76 301.101C195.871 299.152 199.336 297.695 203.037 296.848L204.947 285.547H215.736L217.645 296.848C221.347 297.695 224.812 299.152 227.922 301.101L237.254 294.466L244.893 302.105L238.238 311.437C240.207 314.547 241.664 318.012 242.491 321.713L253.811 323.623V334.412L242.491 336.302C241.664 340.023 240.207 343.468 238.238 346.598L244.893 355.93L237.254 363.549L227.922 356.915C224.812 358.883 221.347 360.34 217.645 361.167L215.736 372.468H204.947L203.037 361.167C199.336 360.34 195.871 358.883 192.76 356.915L183.428 363.549L175.79 355.93L182.444 346.598C180.475 343.468 179.018 340.023 178.192 336.302L166.871 334.412V323.623ZM219.437 414.402L211.956 415.662C211.404 418.123 210.44 420.407 209.14 422.474L213.531 428.656L208.491 433.696L202.309 429.306C200.242 430.605 197.958 431.57 195.497 432.121L194.237 439.602H187.09L185.83 432.121C183.389 431.57 181.105 430.605 179.038 429.306L172.856 433.696L167.816 428.656L172.207 422.474C170.907 420.407 169.943 418.123 169.391 415.662L161.91 414.402V407.275L169.391 406.015C169.943 403.554 170.907 401.271 172.207 399.203L167.816 393.022L172.856 387.982L179.038 392.372C181.105 391.073 183.389 390.108 185.83 389.557L187.09 382.075H194.237L195.497 389.557C197.958 390.108 200.242 391.073 202.309 392.372L208.491 387.982L213.531 393.022L209.14 399.203C210.44 401.271 211.404 403.554 211.956 406.015L219.437 407.275V414.402ZM328.86 411.311L341.952 419.6L336.322 433.066L321.221 429.522C318.248 433.696 314.626 437.259 310.531 440.114L313.937 455.234L300.431 460.766L292.261 447.595C287.359 448.422 282.279 448.422 277.22 447.536L268.931 460.628L255.465 454.998L259.009 439.898C254.835 436.925 251.272 433.302 248.417 429.207L233.297 432.613L227.765 419.108L240.936 410.937C240.109 406.035 240.109 400.956 240.995 395.896L227.903 387.608L233.533 374.141L248.633 377.685C251.606 373.511 255.248 369.948 259.324 367.093L255.918 351.973L269.423 346.441L277.594 359.612C282.496 358.785 287.575 358.785 292.635 359.671L300.923 346.579L314.39 352.209L310.846 367.31C315.02 370.283 318.583 373.925 321.438 378L336.558 374.594L342.09 388.1L328.919 396.27C329.746 401.172 329.746 406.252 328.86 411.311ZM293.895 382.213C282.082 377.252 268.498 382.823 263.537 394.636C258.576 406.448 264.147 420.052 275.96 424.994C287.772 429.955 301.376 424.384 306.318 412.571C311.279 400.759 305.707 387.174 293.895 382.213ZM210.341 346.165C219.811 346.165 227.489 338.487 227.489 329.017C227.489 319.548 219.811 311.87 210.341 311.87C200.872 311.87 193.193 319.548 193.193 329.017C193.193 338.487 200.872 346.165 210.341 346.165ZM190.673 402.885C186.283 402.885 182.72 406.448 182.72 410.839C182.72 415.229 186.283 418.793 190.673 418.793C195.064 418.793 198.627 415.229 198.627 410.839C198.627 406.448 195.064 402.885 190.673 402.885ZM293.895 382.213C282.082 377.252 268.498 382.823 263.537 394.636C258.576 406.448 264.147 420.052 275.96 424.994C287.772 429.955 301.376 424.384 306.318 412.571C311.279 400.759 305.707 387.174 293.895 382.213ZM293.895 382.213C282.082 377.252 268.498 382.823 263.537 394.636C258.576 406.448 264.147 420.052 275.96 424.994C287.772 429.955 301.376 424.384 306.318 412.571C311.279 400.759 305.707 387.174 293.895 382.213Z" fill="#737373"/>
</svg>
