<svg width="405" height="405" viewBox="0 0 405 405" fill="none" xmlns="http://www.w3.org/2000/svg">
<g clip-path="url(#clip0_525_11)">
<path d="M147.53 26.7129H38.8499C25.8217 26.7129 15.2603 37.2743 15.2603 50.3025V158.983C15.2603 172.011 25.8217 182.573 38.8499 182.573H147.53C160.559 182.573 171.12 172.011 171.12 158.983V50.3025C171.12 37.2743 160.559 26.7129 147.53 26.7129Z" stroke="#737373" stroke-width="30.1596" stroke-linecap="round" stroke-linejoin="round"/>
<path d="M284.324 22.2772L219.395 87.2063C210.182 96.4186 210.182 111.355 219.395 120.567L284.324 185.496C293.536 194.709 308.472 194.709 317.685 185.496L382.614 120.567C391.826 111.355 391.826 96.4186 382.614 87.2063L317.685 22.2771C308.472 13.0648 293.536 13.0648 284.324 22.2772Z" stroke="#737373" stroke-width="30.1596" stroke-linecap="round" stroke-linejoin="round"/>
<path d="M147.53 233.88H38.8499C25.8217 233.88 15.2603 244.441 15.2603 257.47V366.15C15.2603 379.178 25.8217 389.74 38.8499 389.74H147.53C160.559 389.74 171.12 379.178 171.12 366.15V257.47C171.12 244.441 160.559 233.88 147.53 233.88Z" stroke="#737373" stroke-width="30.1596" stroke-linecap="round" stroke-linejoin="round"/>
<path d="M355.345 233.88H246.664C233.636 233.88 223.075 244.441 223.075 257.47V366.15C223.075 379.178 233.636 389.74 246.664 389.74H355.345C368.373 389.74 378.935 379.178 378.935 366.15V257.47C378.935 244.441 368.373 233.88 355.345 233.88Z" stroke="#737373" stroke-width="30.1596" stroke-linecap="round" stroke-linejoin="round"/>
</g>
<defs>
<clipPath id="clip0_525_11">
<rect width="405" height="405" fill="white"/>
</clipPath>
</defs>
</svg>
