<svg width="532" height="532" viewBox="0 0 532 532" fill="none" xmlns="http://www.w3.org/2000/svg">
<path d="M264.961 4.15625C239.047 4.15625 217.933 25.27 217.933 51.1842C217.933 77.0777 238.839 98.1914 264.961 98.1914C290.667 98.1914 311.968 77.0777 311.968 51.1842C311.968 25.27 290.875 4.15625 264.961 4.15625ZM324.188 108.062H205.734C173.336 108.062 147.547 135.93 147.547 168.328V234.828H189.109V178.719C189.109 175.165 191.79 172.484 195.344 172.484C198.897 172.484 201.578 175.165 201.578 178.719V234.828H328.344V178.719C328.344 175.165 331.025 172.484 334.578 172.484C338.132 172.484 340.812 175.165 340.812 178.719V234.828H382.375V168.328C382.375 136.138 356.378 108.062 324.188 108.062ZM24.9375 245.219V301.328H72.7344V527.844H457.188V301.328H507.062V245.219H24.9375ZM265.855 489.087C212.675 489.087 169.513 445.924 169.513 392.745C169.513 339.275 212.384 295.821 265.855 295.821C319.325 295.821 362.487 338.984 362.487 392.454C362.487 445.924 319.034 489.087 265.855 489.087Z" fill="#737373"/>
<path d="M291.709 364.935H310.876C311.211 364.945 311.544 364.885 311.855 364.762C312.167 364.638 312.449 364.452 312.686 364.215C312.923 363.978 313.109 363.695 313.233 363.383C313.357 363.072 313.416 362.739 313.407 362.404C313.429 362.068 313.375 361.731 313.25 361.418C313.125 361.105 312.931 360.824 312.684 360.596L288.816 336.728C288.588 336.48 288.307 336.287 287.994 336.162C287.681 336.037 287.344 335.983 287.008 336.005C286.673 335.995 286.34 336.054 286.028 336.178C285.717 336.302 285.434 336.488 285.197 336.725C284.96 336.962 284.774 337.245 284.65 337.556C284.526 337.868 284.467 338.201 284.477 338.536V357.703C284.483 359.619 285.246 361.455 286.602 362.81C287.957 364.165 289.793 364.929 291.709 364.935Z" fill="#737373"/>
<path d="M309.791 375.784H284.477C281.602 375.778 278.846 374.633 276.812 372.6C274.779 370.567 273.634 367.811 273.628 364.935V339.621C273.628 338.662 273.247 337.742 272.569 337.064C271.891 336.386 270.971 336.005 270.012 336.005H233.849C230.973 336.011 228.217 337.156 226.184 339.189C224.151 341.222 223.006 343.978 223 346.854V433.645C223.006 436.521 224.151 439.277 226.184 441.31C228.217 443.343 230.973 444.488 233.849 444.494H302.559C305.434 444.488 308.19 443.343 310.223 441.31C312.257 439.277 313.402 436.521 313.408 433.645V379.401C313.408 378.926 313.314 378.455 313.132 378.017C312.951 377.578 312.684 377.179 312.348 376.843C312.013 376.508 311.614 376.241 311.175 376.06C310.736 375.878 310.266 375.784 309.791 375.784ZM237.465 372.168C237.506 371.232 237.903 370.348 238.576 369.696C239.248 369.044 240.145 368.675 241.082 368.665H255.886C256.349 368.662 256.808 368.75 257.237 368.924C257.666 369.099 258.056 369.356 258.386 369.681C258.715 370.007 258.977 370.394 259.157 370.82C259.337 371.247 259.431 371.705 259.434 372.168V375.762C259.406 376.704 259.017 377.599 258.349 378.263C257.68 378.927 256.783 379.31 255.841 379.333H241.082C240.61 379.342 240.142 379.256 239.704 379.08C239.267 378.903 238.869 378.641 238.536 378.307C238.202 377.974 237.94 377.577 237.763 377.139C237.587 376.702 237.501 376.233 237.51 375.762L237.465 372.168ZM291.71 419.112C291.71 420.071 291.329 420.991 290.651 421.669C289.972 422.347 289.053 422.728 288.093 422.728H241.082C240.122 422.728 239.203 422.347 238.524 421.669C237.846 420.991 237.465 420.071 237.465 419.112V415.564C237.465 414.604 237.846 413.685 238.524 413.006C239.203 412.328 240.122 411.947 241.082 411.947H288.093C289.053 411.947 289.972 412.328 290.651 413.006C291.329 413.685 291.71 414.604 291.71 415.564V419.112ZM298.942 397.414C298.951 397.895 298.865 398.372 298.687 398.819C298.509 399.266 298.244 399.672 297.907 400.015C297.571 400.358 297.169 400.631 296.726 400.817C296.283 401.003 295.807 401.098 295.326 401.098H241.082C240.122 401.098 239.203 400.717 238.524 400.039C237.846 399.361 237.465 398.441 237.465 397.482V393.866C237.465 392.907 237.846 391.987 238.524 391.309C239.203 390.63 240.122 390.249 241.082 390.249H295.326C296.285 390.249 297.205 390.63 297.883 391.309C298.561 391.987 298.942 392.907 298.942 393.866V397.414Z" fill="#737373"/>
</svg>
