<svg width="437" height="436" viewBox="0 0 437 436" fill="none" xmlns="http://www.w3.org/2000/svg">
<g clip-path="url(#clip0_525_16)">
<path d="M430.968 367.601L260.124 27.1561C256.38 19.1084 250.415 12.2977 242.931 7.52539C235.447 2.75309 226.755 0.217773 217.879 0.217773C209.003 0.217773 200.312 2.75309 192.828 7.52539C185.344 12.2977 179.379 19.1084 175.634 27.1561L6.03313 367.601C2.26964 374.733 0.421519 382.719 0.669502 390.78C0.917486 398.84 3.25309 406.697 7.44789 413.584C11.6427 420.471 17.5531 426.152 24.6011 430.07C31.649 433.988 39.5933 436.01 47.6569 435.939H389.344C397.46 436.12 405.483 434.178 412.617 430.305C419.752 426.432 425.75 420.762 430.019 413.856C434.287 406.951 436.678 399.051 436.953 390.938C437.229 382.824 435.38 374.78 431.589 367.601H430.968ZM402.391 397.266C401.043 399.539 399.138 401.432 396.855 402.764C394.572 404.095 391.987 404.822 389.344 404.876H47.6569C44.9091 404.93 42.1962 404.254 39.795 402.917C37.3939 401.58 35.3905 399.63 33.9894 397.266C32.6262 394.905 31.9086 392.226 31.9086 389.5C31.9086 386.774 32.6262 384.096 33.9894 381.734L204.833 41.1342C205.978 38.2373 207.968 35.7515 210.543 33.9999C213.119 32.2482 216.162 31.3116 219.277 31.3116C222.392 31.3116 225.435 32.2482 228.011 33.9999C230.587 35.7515 232.576 38.2373 233.721 41.1342L404.565 381.734C405.613 384.283 405.964 387.065 405.582 389.795C405.2 392.524 404.098 395.103 402.391 397.266Z" fill="#737373"/>
<path d="M234.032 140.846H202.97V280.627H234.032V140.846Z" fill="#737373"/>
<path d="M218.501 373.814C235.656 373.814 249.563 359.907 249.563 342.752C249.563 325.597 235.656 311.689 218.501 311.689C201.346 311.689 187.438 325.597 187.438 342.752C187.438 359.907 201.346 373.814 218.501 373.814Z" fill="#737373"/>
</g>
<defs>
<clipPath id="clip0_525_16">
<rect width="437" height="436" fill="white"/>
</clipPath>
</defs>
</svg>
