<svg width="350" height="350" viewBox="0 0 350 350" fill="none" xmlns="http://www.w3.org/2000/svg">
<g clip-path="url(#clip0_538_76)">
<path d="M77.7778 272.222H116.667V175H77.7778V272.222ZM233.333 272.222H272.222V77.7778H233.333V272.222ZM155.556 272.222H194.444V213.889H155.556V272.222ZM155.556 175H194.444V136.111H155.556V175ZM38.8889 350C28.1944 350 19.0394 346.192 11.4236 338.576C3.80787 330.961 0 321.806 0 311.111V38.8889C0 28.1944 3.80787 19.0394 11.4236 11.4236C19.0394 3.80787 28.1944 0 38.8889 0H311.111C321.806 0 330.961 3.80787 338.576 11.4236C346.192 19.0394 350 28.1944 350 38.8889V311.111C350 321.806 346.192 330.961 338.576 338.576C330.961 346.192 321.806 350 311.111 350H38.8889ZM38.8889 311.111H311.111V38.8889H38.8889V311.111Z" fill="#212121"/>
</g>
<defs>
<clipPath id="clip0_538_76">
<rect width="350" height="350" fill="white"/>
</clipPath>
</defs>
</svg>
