<svg width="448" height="420" viewBox="0 0 448 420" fill="none" xmlns="http://www.w3.org/2000/svg">
<g clip-path="url(#clip0_527_25)">
<path d="M33.0964 103.881H111.24V258.21H33.0964C28.1501 258.21 23.4063 256.245 19.9088 252.748C16.4112 249.25 14.4463 244.507 14.4463 239.56V122.531C14.4463 117.585 16.4112 112.841 19.9088 109.343C23.4063 105.846 28.1501 103.881 33.0964 103.881Z" stroke="#737373" stroke-width="27.9751"/>
<path d="M111.24 258.21V103.881C111.24 103.881 151.991 104.813 219.784 103.881C287.577 102.948 366.933 60.0531 418.5 16.2253C419.849 15.0717 421.499 14.3268 423.256 14.0782C425.013 13.8297 426.805 14.0878 428.421 14.8222C430.037 15.5566 431.409 16.7368 432.377 18.2242C433.346 19.7116 433.869 21.4444 433.887 23.2191V339.245C433.883 340.985 433.392 342.689 432.47 344.164C431.548 345.64 430.231 346.828 428.67 347.594C427.108 348.36 425.362 348.675 423.631 348.501C421.9 348.327 420.252 347.673 418.873 346.612C385.676 320.502 303.056 262.127 223.048 259.702C176.236 258.21 138.376 258.21 111.24 258.21Z" stroke="#737373" stroke-width="27.9751"/>
<path d="M142.945 405.453H98.1851C93.2388 405.453 88.4951 403.488 84.9975 399.99C81.4999 396.493 79.535 391.749 79.535 386.803L70.21 258.304H152.27L161.595 386.803C161.595 391.749 159.63 396.493 156.133 399.99C152.635 403.488 147.892 405.453 142.945 405.453Z" stroke="#737373" stroke-width="27.9751"/>
</g>
<defs>
<clipPath id="clip0_527_25">
<rect width="447.602" height="420" fill="white" transform="translate(0.366211)"/>
</clipPath>
</defs>
</svg>
