<svg width="336" height="337" viewBox="0 0 336 337" fill="none" xmlns="http://www.w3.org/2000/svg">
<g clip-path="url(#clip0_529_38)">
<rect width="336" height="336" rx="40" fill="#737373"/>
<path fill-rule="evenodd" clip-rule="evenodd" d="M31 336.439C36.8585 260.57 61.1016 279.878 117.166 244.801C134.482 280.929 204.855 283.555 219.286 244.801C267.669 275.731 304.535 258.234 304.155 336.439H31ZM130.38 241.951C129.634 240.982 132.335 234.328 132.974 233.251C125.65 226.734 119.862 220.158 118.628 206.626L117.843 206.642C116.029 206.618 114.28 206.201 112.642 205.268C110.019 203.776 108.175 201.215 106.929 198.327C104.291 192.267 95.6035 172.154 108.84 173.743C101.439 159.922 118.189 136.311 89.2998 127.578C113.002 97.5577 163.014 51.2701 199.664 97.7012C239.779 101.589 252.293 149.263 225.281 175.374C226.863 175.432 228.354 175.796 229.675 176.503C234.696 179.192 234.86 185.031 233.541 189.928C232.235 194.019 230.576 196.787 229.013 200.775C227.111 206.16 224.331 207.162 218.958 206.582C218.686 219.896 212.533 226.43 204.253 234.251L206.519 241.927C195.415 265.479 149.29 266.427 130.38 241.951Z" fill="#9E9E9E"/>
</g>
<defs>
<clipPath id="clip0_529_38">
<rect width="336" height="337" fill="white"/>
</clipPath>
</defs>
</svg>
