<svg width="484" height="524" viewBox="0 0 484 524" fill="none" xmlns="http://www.w3.org/2000/svg">
<g clip-path="url(#clip0_540_154)">
<path d="M240.961 0.15625C215.047 0.15625 193.933 21.27 193.933 47.1842C193.933 73.0777 214.839 94.1914 240.961 94.1914C266.667 94.1914 287.968 73.0777 287.968 47.1842C287.968 21.27 266.875 0.15625 240.961 0.15625ZM300.188 104.062H181.734C149.336 104.062 123.547 131.93 123.547 164.328V230.828H165.109V174.719C165.109 171.165 167.79 168.484 171.344 168.484C174.897 168.484 177.578 171.165 177.578 174.719V230.828H304.344V174.719C304.344 171.165 307.025 168.484 310.578 168.484C314.132 168.484 316.812 171.165 316.812 174.719V230.828H358.375V164.328C358.375 132.138 332.378 104.062 300.188 104.062ZM0.9375 241.219V297.328H48.7344V523.844H433.188V297.328H483.062V241.219H0.9375ZM241.855 485.087C188.675 485.087 145.513 441.924 145.513 388.745C145.513 335.275 188.384 291.821 241.855 291.821C295.325 291.821 338.487 334.984 338.487 388.454C338.487 441.924 295.034 485.087 241.855 485.087Z" fill="#737373"/>
<path d="M248.29 394.379L253.094 394.353C256.141 391.162 259.821 387.367 264.629 387.648C269.456 387.389 273.117 391.118 276.165 394.353C278.205 394.432 282.143 394.129 284.052 394.841V364.269H199.27V413.083H234.39L236.78 410.668L236.831 405.863C236.859 402.831 238.075 399.93 240.217 397.783C242.359 395.636 245.257 394.414 248.29 394.379ZM215.969 383.666C210.918 383.59 210.89 376.04 215.969 375.958H267.353C272.397 376.047 272.427 383.57 267.353 383.666H215.969Z" fill="#737373"/>
<path d="M299.467 345H183.854C182.835 344.997 181.857 345.399 181.135 346.116C180.412 346.834 180.004 347.81 180 348.828V428.498C180.003 429.519 180.41 430.498 181.132 431.22C181.854 431.942 182.833 432.349 183.854 432.352H235.417C232.002 429.333 229.477 425.377 230.202 420.791H195.415C194.394 420.788 193.415 420.381 192.693 419.659C191.971 418.936 191.564 417.958 191.561 416.937V360.415C191.561 359.909 191.66 359.407 191.853 358.939C192.047 358.472 192.33 358.046 192.688 357.688C193.046 357.33 193.472 357.047 193.939 356.853C194.407 356.66 194.909 356.561 195.415 356.561H287.905C288.926 356.564 289.905 356.971 290.627 357.693C291.349 358.415 291.756 359.394 291.759 360.415V402.061C292.736 404.236 292.41 408.297 292.478 410.668L295.87 414.085C301.29 419.802 299.646 427.622 293.84 432.352H299.466C300.486 432.345 301.462 431.936 302.183 431.215C302.905 430.494 303.313 429.518 303.32 428.498V348.828C303.312 347.811 302.902 346.838 302.181 346.121C301.459 345.404 300.484 345.001 299.467 345Z" fill="#737373"/>
<path d="M286.801 449.977L276.165 450.054L271.258 454.884L275.08 465.406C275.167 465.645 275.323 465.852 275.527 466.003C275.732 466.153 275.977 466.239 276.231 466.251C276.484 466.262 276.736 466.197 276.953 466.066C277.17 465.934 277.344 465.741 277.451 465.511L281.021 457.864L288.637 461.429C288.867 461.536 289.124 461.573 289.376 461.535C289.627 461.496 289.861 461.384 290.049 461.213C290.236 461.041 290.369 460.818 290.429 460.571C290.49 460.324 290.475 460.065 290.389 459.826L286.801 449.977Z" fill="#737373"/>
<path d="M242.483 449.977L238.896 459.826C238.809 460.065 238.795 460.324 238.855 460.571C238.916 460.818 239.048 461.041 239.236 461.213C239.423 461.384 239.657 461.496 239.909 461.535C240.16 461.573 240.417 461.536 240.647 461.429L248.264 457.864L251.835 465.513C251.942 465.743 252.115 465.936 252.332 466.068C252.549 466.2 252.801 466.264 253.054 466.253C253.308 466.242 253.552 466.156 253.757 466.006C253.962 465.855 254.117 465.648 254.204 465.409L258.027 454.909L253.093 450.054L242.483 449.977Z" fill="#737373"/>
<path d="M284.802 413.847L284.744 405.909C284.737 404.899 284.332 403.932 283.618 403.218C282.904 402.504 281.937 402.099 280.927 402.092L272.989 402.034L267.336 396.463C266.617 395.754 265.647 395.356 264.637 395.356C263.627 395.356 262.657 395.754 261.938 396.463L256.286 402.034L248.348 402.092C247.338 402.099 246.371 402.503 245.657 403.218C244.942 403.932 244.538 404.899 244.531 405.909L244.472 413.847L238.902 419.499C238.193 420.218 237.795 421.188 237.795 422.198C237.795 423.209 238.193 424.178 238.902 424.898L244.472 430.55L244.53 438.488C244.538 439.498 244.942 440.465 245.657 441.179C246.371 441.893 247.337 442.298 248.348 442.305L256.286 442.363L261.938 447.934C262.658 448.643 263.627 449.041 264.637 449.041C265.648 449.041 266.617 448.643 267.337 447.934L272.988 442.363L280.926 442.305C281.937 442.298 282.903 441.893 283.617 441.179C284.332 440.465 284.736 439.498 284.744 438.488L284.802 430.55L290.373 424.898C291.082 424.178 291.479 423.209 291.479 422.199C291.479 421.188 291.082 420.219 290.373 419.499L284.802 413.847ZM264.638 432.475C251.054 432.056 251.057 412.339 264.638 411.922C278.221 412.341 278.218 432.058 264.638 432.475Z" fill="#737373"/>
</g>
<defs>
<clipPath id="clip0_540_154">
<rect width="484" height="524" fill="white"/>
</clipPath>
</defs>
</svg>
