<svg width="11" height="11" viewBox="0 0 11 11" fill="none" xmlns="http://www.w3.org/2000/svg">
<g clip-path="url(#clip0_480_142)">
<path d="M1.77889 3.38237C2.53219 3.38237 3.14287 2.7717 3.14287 2.01839C3.14287 1.26509 2.53219 0.654419 1.77889 0.654419C1.02559 0.654419 0.414917 1.26509 0.414917 2.01839C0.414917 2.7717 1.02559 3.38237 1.77889 3.38237Z" fill="#737373"/>
<path d="M10.8592 2.39207H7.56184V2.0188H6.68722V2.39207H3.5553H3.33267V2.84191H3.5553V3.8319L3.04301 3.58776H2.27529L1.75524 4.19072L1.25213 3.58776L0.14677 3.7931L0.0762076 6.24479H0.544743L0.570146 6.7539H0.641414V7.06402V7.293V9.72176H0.547213L0 9.84101V10.3455H0.466066L1.0101 10.257L1.01504 10.3455H1.61765V9.78351V9.72247V7.29406H1.96093V9.72247V9.78351V10.3455H2.56354L2.56848 10.257L3.11252 10.3455H3.57858V9.84101L3.03066 9.72247H2.93717V7.29406V7.06473V6.75461H3.02361L3.1351 4.4966L3.5553 4.68677V7.28171H6.77859V8.10835L4.99971 10.1151H5.63901L6.83998 8.75894V10.1151H7.20726V8.76035L8.40647 10.1151H9.056L7.26724 8.10835V7.28171H10.8596V2.84226H11V2.39207H10.8592ZM10.5445 6.95042H7.26653H6.77859H3.87036V4.82895L5.18176 5.42239L5.17682 4.60492L3.87036 3.9822V2.84226H10.5445V6.95042Z" fill="#737373"/>
<path d="M6.49036 4.84338V5.87183C6.49036 5.87183 6.86363 5.74235 7.22774 5.8676C7.59149 5.9932 8.2075 6.36365 8.2075 6.36365C8.2075 6.36365 8.39519 6.05777 8.61535 5.91594C8.83515 5.77446 9.00485 5.66579 9.00485 5.66579V4.87055L8.32675 5.46963L6.49036 4.84338Z" fill="#737373"/>
<path d="M5.78757 5.35358H5.65456V5.91667H6.12063V5.35358H5.98021V4.5721L8.30348 5.31654L9.78247 3.99737L7.37806 3.30444L5.48804 4.41439L5.78757 4.51071V5.35358Z" fill="#737373"/>
</g>
<defs>
<clipPath id="clip0_480_142">
<rect width="11" height="11" fill="white"/>
</clipPath>
</defs>
</svg>
