<svg width="11" height="11" viewBox="0 0 11 11" fill="none" xmlns="http://www.w3.org/2000/svg">
<g clip-path="url(#clip0_480_95)">
<path d="M5.49804 3.00157C6.32686 3.00157 6.99876 2.32967 6.99876 1.50084C6.99876 0.672018 6.32686 0.00012207 5.49804 0.00012207C4.66921 0.00012207 3.99731 0.672018 3.99731 1.50084C3.99731 2.32967 4.66921 3.00157 5.49804 3.00157Z" fill="#737373"/>
<path d="M7.08281 5.57612L7.06486 4.94242H8.1514L7.90461 4.10611L7.71547 3.45136L6.90091 3.33987V3.02026L5.41193 3.29155L3.92225 3.02026V3.35851L3.28303 3.44031L2.65243 4.74844H2.65658L2.56407 4.94276H3.84735V5.57646H0.767212V6.8052H1.53379V10.9998H9.46574V6.80486H10.2323V5.57612H7.08281ZM6.55611 4.10611H6.33969V4.94242H6.55611V5.11775L5.41227 5.32623L4.26809 5.11775V4.94242H4.47415V4.10611H4.26809V3.4341L5.41227 3.64223L6.55611 3.4341V4.10611Z" fill="#737373"/>
</g>
<defs>
<clipPath id="clip0_480_95">
<rect width="11" height="11" fill="white"/>
</clipPath>
</defs>
</svg>
