<svg width="343" height="322" viewBox="0 0 343 322" fill="none" xmlns="http://www.w3.org/2000/svg">
<g clip-path="url(#clip0_540_132)">
<path fill-rule="evenodd" clip-rule="evenodd" d="M321.562 139.344H21.4375V85.75C21.4375 73.9165 31.0415 64.3125 42.875 64.3125H300.125C311.958 64.3125 321.562 73.9165 321.562 85.75V139.344ZM150.062 171.5C150.062 167.577 151.188 163.954 153.032 160.781H189.968C191.812 163.954 192.938 167.577 192.938 171.5C192.938 183.333 183.333 192.938 171.5 192.938C159.667 192.938 150.062 183.333 150.062 171.5ZM321.562 278.688C321.562 290.521 311.958 300.125 300.125 300.125H42.875C31.0415 300.125 21.4375 290.521 21.4375 278.688V160.781H130.147C129.247 164.222 128.625 167.77 128.625 171.5C128.625 195.178 147.822 214.375 171.5 214.375C195.178 214.375 214.375 195.178 214.375 171.5C214.375 167.77 213.753 164.222 212.853 160.781H321.562V278.688ZM128.625 32.1562C128.625 26.2395 133.427 21.4375 139.344 21.4375H203.656C209.573 21.4375 214.375 26.2395 214.375 32.1562V42.875H128.625V32.1562ZM300.125 42.875H235.812V21.4375C235.812 9.604 226.208 0 214.375 0H128.625C116.792 0 107.188 9.604 107.188 21.4375V42.875H42.875C19.1973 42.875 0 62.0723 0 85.75V278.688C0 302.365 19.1973 321.562 42.875 321.562H300.125C323.803 321.562 343 302.365 343 278.688V85.75C343 62.0723 323.803 42.875 300.125 42.875Z" fill="#737373"/>
</g>
<defs>
<clipPath id="clip0_540_132">
<rect width="343" height="322" fill="white"/>
</clipPath>
</defs>
</svg>
