<svg width="532" height="532" viewBox="0 0 532 532" fill="none" xmlns="http://www.w3.org/2000/svg">
<path d="M264.961 4.15625C239.047 4.15625 217.933 25.27 217.933 51.1842C217.933 77.0777 238.839 98.1914 264.961 98.1914C290.667 98.1914 311.968 77.0777 311.968 51.1842C311.968 25.27 290.875 4.15625 264.961 4.15625ZM324.188 108.062H205.734C173.336 108.062 147.547 135.93 147.547 168.328V234.828H189.109V178.719C189.109 175.165 191.79 172.484 195.344 172.484C198.897 172.484 201.578 175.165 201.578 178.719V234.828H328.344V178.719C328.344 175.165 331.025 172.484 334.578 172.484C338.132 172.484 340.812 175.165 340.812 178.719V234.828H382.375V168.328C382.375 136.138 356.378 108.062 324.188 108.062ZM24.9375 245.219V301.328H72.7344V527.844H457.188V301.328H507.062V245.219H24.9375ZM265.855 489.087C212.675 489.087 169.513 445.924 169.513 392.745C169.513 339.275 212.384 295.821 265.855 295.821C319.325 295.821 362.487 338.984 362.487 392.454C362.487 445.924 319.034 489.087 265.855 489.087Z" fill="#737373"/>
<path fill-rule="evenodd" clip-rule="evenodd" d="M287.667 441.667H223.667C217.776 441.667 213 436.891 213 431V345.667C213 339.776 217.776 335 223.667 335H287.667C293.558 335 298.334 339.776 298.334 345.667V431C298.334 436.891 293.558 441.667 287.667 441.667ZM250.333 359C250.333 357.527 251.527 356.333 253 356.333H285C286.473 356.333 287.667 357.527 287.667 359C287.667 360.473 286.473 361.667 285 361.667H253C251.527 361.667 250.333 360.473 250.333 359ZM253 367C251.527 367 250.333 368.194 250.333 369.667C250.333 371.14 251.527 372.333 253 372.333H285C286.473 372.333 287.667 371.14 287.667 369.667C287.667 368.194 286.473 367 285 367H253ZM244.219 357.114C245.26 358.156 245.26 359.844 244.219 360.886L231.667 373.438L224.448 366.219C223.406 365.178 223.406 363.489 224.448 362.448C225.489 361.406 227.178 361.406 228.219 362.448L231.667 365.896L240.448 357.114C241.489 356.073 243.178 356.073 244.219 357.114ZM253 388.333C251.527 388.333 250.333 389.527 250.333 391C250.333 392.473 251.527 393.667 253 393.667H285C286.473 393.667 287.667 392.473 287.667 391C287.667 389.527 286.473 388.333 285 388.333H253ZM250.333 401.667C250.333 400.194 251.527 399 253 399H285C286.473 399 287.667 400.194 287.667 401.667C287.667 403.14 286.473 404.334 285 404.334H253C251.527 404.334 250.333 403.14 250.333 401.667ZM239.667 388.333H226.333C224.861 388.333 223.667 389.527 223.667 391V404.334C223.667 405.806 224.861 407 226.333 407H239.667C241.14 407 242.333 405.806 242.333 404.334V391C242.333 389.527 241.14 388.333 239.667 388.333Z" fill="#737373"/>
<path fill-rule="evenodd" clip-rule="evenodd" d="M319.666 431L311.666 441.667L303.666 431V383H319.666V431Z" fill="#737373"/>
<path fill-rule="evenodd" clip-rule="evenodd" d="M308.999 364.334H314.333C317.278 364.334 319.666 366.722 319.666 369.667V380.334H303.666V369.667C303.666 366.722 306.054 364.334 308.999 364.334Z" fill="#737373"/>
</svg>
