<svg width="93" height="149" viewBox="0 0 93 149" fill="none" xmlns="http://www.w3.org/2000/svg">
<path d="M4.62826 -12.0904C-2.18802 -0.197399 0.720251 14.9777 4.51582 28.2622C8.30925 41.5482 12.798 55.7902 8.55202 68.9243C7.26869 72.896 5.19831 76.6751 4.89896 80.8546C4.32676 88.8346 10.5873 95.9216 17.7438 98.7682C24.898 101.616 32.7971 101.234 40.4506 101.077C48.1048 100.92 56.1177 101.118 62.8509 104.925C76.5164 112.651 79.9324 131.898 91.5798 142.649C100.425 150.815 113.162 153.061 124.861 151.428C136.56 149.796 147.528 144.731 158.313 139.723C174.289 132.303 190.386 124.813 204.62 114.208C217.856 104.347 229.527 91.5173 235.65 75.7792C241.776 60.0405 241.715 41.155 233.062 26.7748C225.962 14.9777 213.207 5.49668 212.825 -8.43451C212.601 -16.6208 216.955 -24.6445 215.528 -32.6982C212.266 -51.0917 187.182 -53.8561 173.174 -51.8265C156.413 -49.3981 142.413 -39.5281 130.713 -27.2563C123.143 -19.3185 115.985 -9.38483 104.632 -7.78568C87.7133 -5.40235 70.4657 -18.3044 55.0062 -23.5538C38.3487 -29.2128 14.9866 -30.1652 4.62826 -12.0904Z" fill="#C6CAC6"/>
</svg>
