<svg width="434" height="434" viewBox="0 0 434 434" fill="none" xmlns="http://www.w3.org/2000/svg">
<path fill-rule="evenodd" clip-rule="evenodd" d="M91.8394 91.6628C160.472 23.1273 272.04 23.8561 341.091 92.9082C410.173 161.99 410.873 273.624 342.249 342.249C273.623 410.873 161.989 410.173 92.9075 341.091C51.9695 300.154 35.0643 244.304 42.3235 191.343C43.3407 183.922 50.1812 178.731 57.6021 179.749C65.0231 180.766 70.2143 187.606 69.1973 195.027C63.0493 239.879 77.3572 287.181 112.088 321.912C170.759 380.584 265.217 380.918 323.068 323.068C380.918 265.217 380.582 170.759 321.91 112.088C263.27 53.4473 168.878 53.0816 111.02 110.843L124.541 110.911C132.031 110.949 138.073 117.051 138.035 124.542C137.997 132.032 131.895 138.073 124.404 138.036L78.3724 137.804C70.9353 137.767 64.9157 131.747 64.8783 124.31L64.647 78.2781C64.6092 70.7879 70.6508 64.6854 78.1411 64.6476C85.6314 64.6099 91.734 70.6516 91.7716 78.1419L91.8394 91.6628ZM216.998 131.103C224.488 131.103 230.561 137.175 230.561 144.665V211.381L271.796 252.617C277.093 257.914 277.093 266.501 271.796 271.796C266.499 277.093 257.912 277.093 252.617 271.796L203.436 222.617V144.665C203.436 137.175 209.508 131.103 216.998 131.103Z" fill="#737373"/>
</svg>
