<svg width="530" height="530" viewBox="0 0 530 530" fill="none" xmlns="http://www.w3.org/2000/svg">
<path d="M262.412 213.325H245.063L194.444 292.018L188.336 233.096L196.659 213.139H159.331L167.654 233.096L161.174 292.39L110.555 213.325H90.2242C42.752 213.325 4.14062 252.123 4.14062 299.409V509.297H64.366V316.779H64.1797C64.1797 311.603 67.5129 308.104 72.875 308.104C78.2164 308.104 81.5496 311.416 81.5496 316.779V509.297H270.921V316.779C270.921 311.603 274.254 308.104 279.596 308.104C284.771 308.104 288.291 311.416 288.291 316.779V509.297H348.516V299.409C348.516 251.936 309.719 213.325 262.412 213.325ZM175.211 58.507C137.158 58.507 106.311 89.3547 106.311 127.407C106.311 165.48 137.158 196.328 175.211 196.328C213.284 196.328 244.131 165.48 244.131 127.407C244.131 89.3547 213.284 58.507 175.211 58.507ZM486.523 35.1953V20.7031H405.781V35.1953H364.375V242.227H430.625V198.75H459.609V242.227H525.859V35.1953H486.523ZM418.203 167.695H391.289V140.781H418.203V167.695ZM418.203 128.359H391.289V101.445H418.203V128.359ZM418.203 89.0234H391.289V62.1094H418.203V89.0234ZM459.609 167.695H430.625V140.781H459.609V167.695ZM459.609 128.359H430.625V101.445H459.609V128.359ZM459.609 89.0234H430.625V62.1094H459.609V89.0234ZM498.945 167.695H472.031V140.781H498.945V167.695ZM498.945 128.359H472.031V101.445H498.945V128.359ZM498.945 89.0234H472.031V62.1094H498.945V89.0234Z" fill="#737373"/>
</svg>
