<svg width="532" height="532" viewBox="0 0 532 532" fill="none" xmlns="http://www.w3.org/2000/svg">
<path d="M264.961 4.15625C239.047 4.15625 217.933 25.27 217.933 51.1842C217.933 77.0777 238.839 98.1914 264.961 98.1914C290.667 98.1914 311.968 77.0777 311.968 51.1842C311.968 25.27 290.875 4.15625 264.961 4.15625ZM324.188 108.062H205.734C173.336 108.062 147.547 135.93 147.547 168.328V234.828H189.109V178.719C189.109 175.165 191.79 172.484 195.344 172.484C198.897 172.484 201.578 175.165 201.578 178.719V234.828H328.344V178.719C328.344 175.165 331.025 172.484 334.578 172.484C338.132 172.484 340.812 175.165 340.812 178.719V234.828H382.375V168.328C382.375 136.138 356.378 108.062 324.188 108.062ZM24.9375 245.219V301.328H72.7344V527.844H457.188V301.328H507.062V245.219H24.9375ZM265.855 489.087C212.675 489.087 169.513 445.924 169.513 392.745C169.513 339.275 212.384 295.821 265.855 295.821C319.325 295.821 362.487 338.984 362.487 392.454C362.487 445.924 319.034 489.087 265.855 489.087Z" fill="#737373"/>
<path d="M254.745 348.231C254.434 347.437 253.991 346.729 253.418 346.107C252.844 345.484 252.154 344.983 251.348 344.605C250.543 344.227 249.646 344.037 248.657 344.037C247.692 344.037 246.804 344.217 245.993 344.578C245.181 344.938 244.479 345.42 243.887 346.024C243.295 346.628 242.834 347.327 242.504 348.121C242.175 348.914 242.01 349.738 242.01 350.593C242.01 351.435 242.168 352.253 242.486 353.046C242.804 353.84 243.249 354.545 243.823 355.161C244.396 355.778 245.086 356.275 245.892 356.654C246.698 357.032 247.594 357.221 248.584 357.221C249.547 357.221 250.436 357.038 251.248 356.672C252.06 356.307 252.759 355.821 253.344 355.217C253.93 354.613 254.388 353.916 254.718 353.129C255.047 352.342 255.212 351.521 255.212 350.666C255.212 349.836 255.056 349.025 254.745 348.231ZM251.413 351.856C251.297 352.271 251.12 352.641 250.882 352.964C250.643 353.288 250.335 353.55 249.957 353.751C249.578 353.952 249.133 354.053 248.621 354.053C248.107 354.053 247.665 353.955 247.293 353.76C246.92 353.565 246.612 353.308 246.368 352.991C246.124 352.674 245.941 352.311 245.819 351.902C245.697 351.493 245.636 351.068 245.636 350.629C245.636 350.202 245.693 349.784 245.81 349.374C245.925 348.966 246.105 348.599 246.35 348.276C246.594 347.952 246.902 347.693 247.275 347.497C247.646 347.302 248.089 347.205 248.602 347.205C249.102 347.205 249.539 347.299 249.911 347.488C250.283 347.678 250.595 347.928 250.845 348.239C251.095 348.55 251.281 348.91 251.404 349.32C251.526 349.729 251.587 350.153 251.587 350.593C251.587 351.02 251.528 351.441 251.413 351.856Z" fill="#737373"/>
<path d="M266.984 351.581C266.801 351.154 266.539 350.791 266.197 350.491C265.855 350.192 265.443 349.933 264.961 349.713C264.478 349.493 263.938 349.292 263.34 349.109C262.961 348.987 262.623 348.883 262.324 348.798C262.024 348.713 261.771 348.623 261.564 348.532C261.356 348.441 261.197 348.34 261.087 348.23C260.977 348.12 260.923 347.98 260.923 347.808C260.923 347.577 261.017 347.412 261.206 347.314C261.396 347.216 261.649 347.168 261.966 347.168C262.357 347.168 262.757 347.232 263.166 347.36C263.575 347.488 263.944 347.625 264.273 347.772C264.664 347.943 265.042 348.138 265.409 348.358L266.947 345.41C266.654 345.264 266.325 345.108 265.958 344.943C265.592 344.778 265.198 344.626 264.777 344.485C264.356 344.344 263.919 344.229 263.468 344.137C263.016 344.045 262.552 344 262.076 344C261.429 344 260.816 344.095 260.236 344.284C259.656 344.473 259.14 344.75 258.689 345.117C258.237 345.483 257.88 345.941 257.617 346.49C257.355 347.04 257.224 347.675 257.224 348.395C257.224 348.871 257.288 349.292 257.416 349.659C257.544 350.025 257.742 350.351 258.011 350.638C258.28 350.925 258.621 351.181 259.037 351.407C259.451 351.633 259.946 351.843 260.52 352.038C260.911 352.173 261.28 352.289 261.628 352.386C261.976 352.484 262.284 352.582 262.553 352.679C262.821 352.777 263.032 352.89 263.184 353.018C263.337 353.147 263.413 353.302 263.413 353.485C263.413 353.656 263.337 353.794 263.184 353.897C263.032 354.001 262.76 354.053 262.369 354.053C261.857 354.053 261.353 353.979 260.859 353.833C260.364 353.687 259.921 353.522 259.531 353.339C259.067 353.131 258.621 352.893 258.195 352.624L256.656 355.755C257.047 355.987 257.471 356.195 257.929 356.378C258.387 356.561 258.863 356.72 259.357 356.854C259.852 356.989 260.349 357.092 260.849 357.166C261.35 357.239 261.838 357.276 262.314 357.276C262.913 357.276 263.508 357.205 264.1 357.065C264.693 356.924 265.224 356.696 265.694 356.378C266.163 356.061 266.542 355.636 266.829 355.105C267.116 354.574 267.259 353.918 267.259 353.137C267.259 352.527 267.167 352.008 266.984 351.581Z" fill="#737373"/>
<path d="M320.504 436.931H318.725C318.802 436.389 318.844 435.836 318.844 435.272C318.844 430.01 315.345 425.568 310.547 424.14V357.276H303.407V353.999H297.511V344.111H293.94V357.277H291.359V353.999H285.664V351.948H290.388V349.054H285.664V347.222H291.194V344.11H282.093V357.276H276.142V347.223H279.878V344.111H268.818V347.223H272.571V357.277H265.741H262.317H239.575V344.111H236.004V348.908H231.646V344.111H228.075V357.277H220.935V424.14C216.137 425.568 212.638 430.01 212.638 435.272C212.638 435.836 212.68 436.389 212.758 436.931H210.978C208.229 436.931 206 439.16 206 441.91C206 444.659 208.229 446.888 210.978 446.888H245.827V426.975H285.655V446.888H320.504C323.253 446.888 325.482 444.659 325.482 441.91C325.482 439.161 323.253 436.931 320.504 436.931ZM231.646 352.02H236.004V357.276H231.646V352.02ZM240.849 417.018H230.892V407.061H240.849V417.018ZM240.849 397.104H230.892V387.147H240.849V397.104ZM240.849 377.19H230.892V367.233H240.849V377.19ZM260.763 417.018H250.806V407.061H260.763V417.018ZM260.763 397.104H250.806V387.147H260.763V397.104ZM260.763 377.19H250.806V367.233H260.763V377.19ZM280.677 417.018H270.72V407.061H280.677V417.018ZM280.677 397.104H270.72V387.147H280.677V397.104ZM280.677 377.19H270.72V367.233H280.677V377.19ZM300.59 417.018H290.633V407.061H300.59V417.018ZM300.59 397.104H290.633V387.147H300.59V397.104ZM300.59 377.19H290.633V367.233H300.59V377.19Z" fill="#737373"/>
</svg>
