<svg width="532" height="532" viewBox="0 0 532 532" fill="none" xmlns="http://www.w3.org/2000/svg">
<path d="M264.961 4.15625C239.047 4.15625 217.933 25.27 217.933 51.1842C217.933 77.0777 238.839 98.1914 264.961 98.1914C290.667 98.1914 311.968 77.0777 311.968 51.1842C311.968 25.27 290.875 4.15625 264.961 4.15625ZM324.188 108.062H205.734C173.336 108.062 147.547 135.93 147.547 168.328V234.828H189.109V178.719C189.109 175.165 191.79 172.484 195.344 172.484C198.897 172.484 201.578 175.165 201.578 178.719V234.828H328.344V178.719C328.344 175.165 331.025 172.484 334.578 172.484C338.132 172.484 340.812 175.165 340.812 178.719V234.828H382.375V168.328C382.375 136.138 356.378 108.062 324.188 108.062ZM24.9375 245.219V301.328H72.7344V527.844H457.188V301.328H507.062V245.219H24.9375ZM265.855 489.087C212.675 489.087 169.513 445.924 169.513 392.745C169.513 339.275 212.384 295.821 265.855 295.821C319.325 295.821 362.487 338.984 362.487 392.454C362.487 445.924 319.034 489.087 265.855 489.087Z" fill="#737373"/>
<path d="M279.62 352.086C279.62 346.525 275.095 342 269.534 342H261.465C255.904 342 251.379 346.525 251.379 352.086V370.242H279.62V352.086ZM271.551 356.121C271.551 357.236 270.649 358.138 269.534 358.138H261.465C260.35 358.138 259.448 357.236 259.448 356.121V352.086C259.448 350.971 260.35 350.069 261.465 350.069H269.534C270.649 350.069 271.551 350.971 271.551 352.086V356.121Z" fill="#737373"/>
<path d="M319.422 366.398H283.656V370.232C283.656 372.472 281.841 374.266 279.621 374.266H251.38C249.162 374.266 247.345 372.472 247.345 370.232V366.398H211.579C209.038 366.398 207 368.457 207 370.979V446.565C207 449.087 209.038 451.124 211.579 451.124H319.422C321.943 451.124 324 449.087 324 446.565V370.979C324 368.457 321.943 366.398 319.422 366.398ZM233.937 400.213C233.655 398.287 233.266 394.479 234.272 392.568C234.272 392.568 233.585 391.319 233.585 389.67C236.48 390.082 245.723 384.15 248.482 388.98C252.48 388.565 254.872 394.207 253.056 400.213C253.056 400.213 255.298 400.109 254.402 403.249C253.563 406.196 252.888 406.872 251.708 407.291C251.202 410.156 250.351 412.685 249.232 413.93C249.232 415.423 249.232 416.513 249.232 417.386C249.232 417.472 249.248 417.567 249.273 417.661L245.351 419.547V422.318H241.659V419.547L237.735 417.657C237.759 417.563 237.776 417.472 237.776 417.386C237.776 416.513 237.776 415.423 237.776 413.93C236.656 412.685 235.81 410.156 235.302 407.291C234.12 406.872 233.447 406.196 232.606 403.249C231.744 400.235 233.771 400.213 233.937 400.213ZM243.506 436.774C230.262 436.774 221.158 435.058 221.016 433.401C220.444 426.502 229.379 422.818 233.019 421.54C233.375 421.412 233.789 421.215 234.218 420.975L241.164 430.582L241.659 424.288H245.351L245.845 430.582L252.789 420.975C253.207 421.203 253.615 421.398 253.991 421.54C257.604 422.89 266.565 426.496 265.991 433.401C265.851 435.058 256.748 436.774 243.506 436.774ZM292.08 432.176H279.978V428.142H292.08V432.176ZM304.184 414.692H279.978V410.658H304.184V414.692H304.184ZM304.184 397.209H279.978V393.174H304.184V397.209H304.184Z" fill="#737373"/>
</svg>
