<svg width="532" height="532" viewBox="0 0 532 532" fill="none" xmlns="http://www.w3.org/2000/svg">
<path d="M264.961 4.15625C239.047 4.15625 217.933 25.27 217.933 51.1842C217.933 77.0777 238.839 98.1914 264.961 98.1914C290.667 98.1914 311.968 77.0777 311.968 51.1842C311.968 25.27 290.875 4.15625 264.961 4.15625ZM324.188 108.062H205.734C173.336 108.062 147.547 135.93 147.547 168.328V234.828H189.109V178.719C189.109 175.165 191.79 172.484 195.344 172.484C198.897 172.484 201.578 175.165 201.578 178.719V234.828H328.344V178.719C328.344 175.165 331.025 172.484 334.578 172.484C338.132 172.484 340.812 175.165 340.812 178.719V234.828H382.375V168.328C382.375 136.138 356.378 108.062 324.188 108.062ZM24.9375 245.219V301.328H72.7344V527.844H457.188V301.328H507.062V245.219H24.9375ZM265.855 489.087C212.675 489.087 169.513 445.924 169.513 392.745C169.513 339.275 212.384 295.821 265.855 295.821C319.325 295.821 362.487 338.984 362.487 392.454C362.487 445.924 319.034 489.087 265.855 489.087Z" fill="#737373"/>
<path d="M209.467 370.557C209.467 364.324 216.392 352.55 225.396 349.088C234.399 345.625 248.25 345.625 266.949 345.625C287.034 345.625 307.118 349.088 307.118 349.088L291.189 333.159L298.115 320L335.513 358.091L297.422 396.182L290.496 383.023L306.425 367.094C306.425 367.094 286.341 363.631 265.564 363.631C247.558 363.631 233.706 363.631 224.703 367.094C215.7 370.557 209.467 392.719 209.467 392.719V370.557Z" fill="#737373"/>
<path d="M323.046 409.341C323.046 415.574 316.12 427.347 307.117 430.81C298.114 434.273 284.263 434.273 265.564 434.273C245.479 434.273 225.395 430.81 225.395 430.81L241.324 446.739L234.398 459.897L197 421.807L235.091 383.716L242.016 396.874L226.088 412.803C226.088 412.803 246.172 416.266 266.949 416.266C284.955 416.266 298.806 416.266 307.81 412.803C316.813 409.341 323.046 387.179 323.046 387.179V409.341Z" fill="#737373"/>
</svg>
