<svg width="513" height="401" viewBox="0 0 513 401" fill="none" xmlns="http://www.w3.org/2000/svg">
<path d="M100.898 56.8315C100.898 25.6665 125.829 0.535156 157.194 0.535156C188.359 0.535156 213.491 25.6665 213.491 56.8315C213.29 88.1971 188.159 113.128 157.194 113.128C126.029 113.126 100.898 87.9944 100.898 56.8315ZM411.423 298.281H309.276V207.002C309.276 162.533 270.415 126.587 226.689 126.587H89.7693C41.7643 126.587 0.639999 168.186 0.662293 209.174V372.467C0.605545 391.014 13.7043 400.698 26.7422 400.722C39.8125 400.746 52.8221 391.061 52.8221 372.469V213.522H70.2093V400.576H239.731V213.522H257.118L257.294 322.991C257.179 341.961 268.903 350.042 281.025 350.441H411.425C446.986 350.441 446.985 298.281 411.423 298.281ZM511.397 60.3012V223.14V223.309C500.333 223.309 491.379 232.261 491.379 243.327C491.379 254.39 500.331 263.345 511.397 263.345V271.115H367.728V271.03C352.948 270.438 341.038 258.276 341.038 243.327C341.038 242.06 341.377 88.0876 341.377 88.0876C341.377 72.8 353.878 60.2992 369.165 60.2992L511.397 60.3012ZM372.291 206.925H380.061V75.5037H372.291V206.925ZM492.477 223.14L367.222 223.394C356.918 224.154 348.726 232.769 348.726 243.241C348.726 254.305 357.763 263.343 368.827 263.259H492.224C486.987 258.193 483.608 251.097 483.608 243.241C483.608 235.303 487.072 228.209 492.477 223.14Z" fill="#737373"/>
</svg>
