<svg width="410" height="410" viewBox="0 0 410 410" fill="none" xmlns="http://www.w3.org/2000/svg">
<g clip-path="url(#clip0_527_29)">
<path d="M261.062 0.381846C235.032 0.381465 214.049 0.381085 197.548 2.59973C180.415 4.90327 165.989 9.83107 154.532 21.2882C144.54 31.2799 139.491 43.5586 136.841 57.9865C134.266 72.0064 133.773 89.1638 133.658 109.75C133.615 117.634 139.97 124.061 147.855 124.105C155.739 124.149 162.166 117.793 162.21 109.909C162.325 89.0949 162.866 74.3417 164.923 63.1448C166.904 52.3559 170.087 46.1111 174.72 41.4772C179.989 36.2093 187.386 32.7745 201.351 30.8968C215.73 28.9636 234.785 28.9334 262.107 28.9334H281.141C308.463 28.9334 327.518 28.9636 341.897 30.8968C355.864 32.7745 363.259 36.2093 368.528 41.4772C373.797 46.7452 377.23 54.1415 379.109 68.1084C381.041 82.486 381.072 101.542 381.072 128.864V281.139C381.072 308.46 381.041 327.516 379.109 341.894C377.23 355.862 373.797 363.257 368.528 368.525C363.259 373.794 355.864 377.228 341.897 379.106C327.518 381.038 308.463 381.069 281.141 381.069H262.107C234.785 381.069 215.73 381.038 201.351 379.106C187.386 377.228 179.989 373.794 174.72 368.525C170.087 363.89 166.904 357.647 164.923 346.858C162.866 335.661 162.325 320.907 162.21 300.093C162.166 292.209 155.739 285.853 147.855 285.897C139.97 285.941 133.615 292.369 133.658 300.253C133.773 320.839 134.266 337.996 136.841 352.015C139.491 366.443 144.54 378.722 154.532 388.715C165.989 400.172 180.415 405.1 197.548 407.403C214.049 409.62 235.032 409.62 261.062 409.62H282.186C308.218 409.62 329.199 409.62 345.702 407.403C362.835 405.1 377.259 400.172 388.718 388.715C400.174 377.256 405.102 362.832 407.406 345.699C409.625 329.196 409.623 308.215 409.623 282.184V127.819C409.623 101.788 409.625 80.8062 407.406 64.304C405.102 47.171 400.174 32.7454 388.718 21.2882C377.259 9.83107 362.835 4.90327 345.702 2.59973C329.199 0.381085 308.218 0.381465 282.186 0.381846H261.062Z" fill="#737373"/>
<path d="M262.103 190.724C269.987 190.724 276.379 197.116 276.379 205C276.379 212.884 269.987 219.276 262.103 219.276H53.2476L90.5673 251.265C96.5536 256.395 97.2469 265.408 92.1158 271.394C86.9849 277.38 77.9725 278.073 71.9864 272.941L5.36615 215.838C2.20188 213.128 0.380859 209.167 0.380859 205C0.380859 200.834 2.20188 196.873 5.36615 194.162L71.9864 137.058C77.9725 131.927 86.9849 132.62 92.1158 138.607C97.2469 144.593 96.5536 153.605 90.5673 158.736L53.2476 190.724H262.103Z" fill="#737373"/>
</g>
<defs>
<clipPath id="clip0_527_29">
<rect width="410" height="410" fill="white"/>
</clipPath>
</defs>
</svg>
