<svg width="394" height="374" viewBox="0 0 394 374" fill="none" xmlns="http://www.w3.org/2000/svg">
<path d="M197 241.448C227.307 241.448 251.874 216.88 251.874 186.573C251.874 156.266 227.307 131.698 197 131.698C166.692 131.698 142.125 156.266 142.125 186.573C142.125 216.88 166.692 241.448 197 241.448Z" stroke="#737373" stroke-width="27.4373" stroke-miterlimit="10" stroke-linecap="round" stroke-linejoin="round"/>
<path d="M14.084 202.67V170.476C14.084 151.453 29.6318 135.723 48.8379 135.723C81.9456 135.723 95.4814 112.309 78.8361 83.5916C69.3245 67.1292 74.9948 45.7281 91.6402 36.2165L123.285 18.1079C137.735 9.51083 156.392 14.6325 164.989 29.0828L167.001 32.5582C183.464 61.2759 210.535 61.2759 227.181 32.5582L229.193 29.0828C237.79 14.6325 256.447 9.51083 270.897 18.1079L302.542 36.2165C319.187 45.7281 324.857 67.1292 315.346 83.5916C298.7 112.309 312.236 135.723 345.344 135.723C364.367 135.723 380.098 151.27 380.098 170.476V202.67C380.098 221.693 364.55 237.424 345.344 237.424C312.236 237.424 298.7 260.837 315.346 289.554C324.857 306.2 319.187 327.418 302.542 336.93L270.897 355.038C256.447 363.635 237.79 358.514 229.193 344.063L227.181 340.588C210.718 311.87 183.647 311.87 167.001 340.588L164.989 344.063C156.392 358.514 137.735 363.635 123.285 355.038L91.6402 336.93C74.9948 327.418 69.3245 306.017 78.8361 289.554C95.4814 260.837 81.9456 237.424 48.8379 237.424C29.6318 237.424 14.084 221.693 14.084 202.67Z" stroke="#737373" stroke-width="27.4373" stroke-miterlimit="10" stroke-linecap="round" stroke-linejoin="round"/>
</svg>
