<svg width="330" height="518" viewBox="0 0 330 518" fill="none" xmlns="http://www.w3.org/2000/svg">
<g clip-path="url(#clip0_523_2)">
<path d="M94.4873 23.7386C94.4873 10.7577 105.011 0.234375 117.992 0.234375H212.009C224.99 0.234375 235.513 10.7577 235.513 23.7386V47.2429C235.513 60.2239 224.99 70.7472 212.009 70.7472H117.992C105.011 70.7472 94.4873 60.2239 94.4873 47.2429V23.7386Z" fill="#737373"/>
<path d="M270.769 17.8633H59.2306C36.5138 17.8633 18.0981 36.2789 18.0981 58.9958V458.568C18.0981 481.285 36.5138 499.701 59.2306 499.701H270.769C293.486 499.701 311.902 481.285 311.902 458.568V58.9958C311.902 36.2789 293.486 17.8633 270.769 17.8633Z" stroke="#737373" stroke-width="35.2564"/>
<path d="M94.4873 435.064H235.513" stroke="#737373" stroke-width="35.2564" stroke-linecap="round"/>
</g>
<defs>
<clipPath id="clip0_523_2">
<rect width="330" height="517.564" fill="white"/>
</clipPath>
</defs>
</svg>
