<svg width="11" height="11" viewBox="0 0 11 11" fill="none" xmlns="http://www.w3.org/2000/svg">
<g clip-path="url(#clip0_480_30)">
<path d="M10.0992 5.30859H8.3241V5.96269H10.0992V5.30859Z" fill="#737373"/>
<path d="M1.02966 0.161133V1.18875L1.48249 1.05055V0.609846H10.5465V6.3352H3.33386L3.31067 6.78461H11V0.161133H1.02966Z" fill="#737373"/>
<path d="M1.75017 3.94992C2.49151 3.94992 3.09249 3.35441 3.09249 2.6198C3.09249 1.88519 2.49151 1.28967 1.75017 1.28967C1.00882 1.28967 0.407837 1.88519 0.407837 2.6198C0.407837 3.35441 1.00882 3.94992 1.75017 3.94992Z" fill="#737373"/>
<path d="M2.88982 10.1312V7.76341V7.54027V7.23706H2.97589L3.0999 4.83337L5.41534 3.64492L5.11146 3.06323L2.99416 4.14968H2.23885L1.72736 4.73799L1.23237 4.14968L0.144386 4.3481L0.0751788 6.74031H0.535386L0.56068 7.23706H0.631292V7.54027V7.76341V10.1312H0.538548L0 10.2468V10.739H0.45845L0.993836 10.652L0.999106 10.739H1.59175V10.1908V10.1312V7.76341H1.929V10.1312V10.1908V10.739H2.52236L2.52727 10.652L3.06266 10.739H3.52111V10.2468L2.98221 10.1312H2.88982Z" fill="#737373"/>
<path d="M6.31395 1.67219C6.35575 1.70004 6.39721 1.73067 6.44006 1.76374C6.46149 1.78045 6.48222 1.79681 6.504 1.81352L6.56372 1.8647C6.57426 1.8741 6.58304 1.88036 6.59534 1.89254L6.62415 1.92074C6.64417 1.93989 6.66314 1.95834 6.68106 1.97748C6.71759 2.01612 6.75237 2.05442 6.78469 2.09271C6.81631 2.131 6.84758 2.1679 6.87463 2.20515C6.88025 2.21315 6.88552 2.22046 6.89149 2.22812C6.97686 2.09062 6.98072 1.67881 6.61115 1.40206C6.20961 1.1006 5.65069 1.23566 5.41602 1.12427C5.65279 1.48317 5.60712 1.72267 6.0048 2.11638C6.27109 2.37955 6.51876 2.39591 6.68598 2.35031C7.02533 2.67475 7.07838 3.16871 7.07838 3.64179C7.04325 3.61395 7.00145 3.59201 6.95297 3.59201C6.8149 3.59201 6.71478 3.6686 6.66771 3.77791C6.36488 3.67591 6.16359 3.91297 6.14637 4.11279C6.00234 4.05987 5.81966 4.22418 5.81966 4.36691C5.81966 4.50754 5.93138 4.62172 6.0726 4.62764L8.30197 4.63182C8.30197 4.63182 8.5398 4.50476 8.5398 4.36691C8.5398 4.22209 8.42176 4.10478 8.27562 4.10478C8.25525 4.10478 8.23593 4.10756 8.21731 4.11209C8.21871 4.10165 8.19201 3.65711 7.80136 3.83569C7.77115 3.69645 7.73145 3.59201 7.49749 3.59201C7.38226 3.59201 7.30357 3.63379 7.25333 3.67556C7.3517 3.18368 7.5024 2.66987 7.94224 2.41541C7.9468 2.41262 7.94926 2.40914 7.95207 2.40566C8.08838 2.51392 8.32551 2.59712 8.67786 2.45196C9.19709 2.23857 9.24698 2.00011 9.60425 1.75817C9.34464 1.77245 8.87951 1.43583 8.39225 1.56254C7.94575 1.67881 7.78977 2.06068 7.81542 2.22012C7.82314 2.21524 7.83158 2.21072 7.83966 2.2055C7.8783 2.18182 7.92151 2.1592 7.96577 2.13553C8.00969 2.1122 8.05711 2.09027 8.10489 2.06834C8.12878 2.0572 8.15477 2.04711 8.17937 2.03771L8.2166 2.02239C8.23311 2.01612 8.2426 2.01369 8.25595 2.00881L8.33148 1.9841C8.35783 1.97679 8.38312 1.96948 8.41017 1.96217C8.46146 1.94789 8.5124 1.93536 8.56193 1.92527C8.65925 1.90334 8.75164 1.88698 8.83103 1.87479C8.98982 1.85077 9.09873 1.84625 9.09873 1.84625C9.09873 1.84625 9.07413 1.85669 9.03057 1.87514C8.98701 1.89324 8.92448 1.91691 8.85035 1.94546C8.81241 1.95903 8.77201 1.97365 8.7288 1.98897C8.68559 2.00394 8.64098 2.01995 8.5939 2.03631C8.54753 2.05233 8.4994 2.06938 8.45233 2.08679C8.40385 2.1028 8.35431 2.1216 8.30478 2.1404C8.25841 2.15746 8.20993 2.18043 8.16285 2.19923C8.11613 2.22046 8.03638 2.24796 7.99107 2.26711C7.93626 2.29009 7.90078 2.30227 7.86671 2.32072C7.47641 2.54629 7.30322 2.94592 7.19853 3.36853C7.17921 2.97134 7.0956 2.58598 6.80612 2.30192C6.80612 2.30192 6.80647 2.30192 6.80718 2.30157C6.76853 2.26537 6.72708 2.22603 6.68527 2.18461C6.65085 2.1491 6.61466 2.11429 6.57883 2.07669C6.54229 2.04154 6.50681 2.00255 6.47028 1.96878C6.43198 1.93258 6.39264 1.89637 6.3554 1.86365C6.31641 1.82954 6.27882 1.79612 6.24263 1.76374C6.2061 1.73067 6.16991 1.69865 6.13619 1.66871C6.10246 1.63808 6.07014 1.60918 6.04134 1.58238C5.98302 1.52807 5.93419 1.48247 5.90152 1.4494C5.86849 1.41633 5.85023 1.39684 5.85023 1.39684C5.85023 1.39684 5.94824 1.44174 6.0856 1.52425C6.1534 1.56567 6.23209 1.61475 6.31395 1.67219ZM7.1908 3.74344C7.18342 3.75493 7.17921 3.76294 7.17921 3.76294C7.17921 3.76294 7.1778 3.7605 7.17639 3.75771L7.1908 3.74344Z" fill="#737373"/>
<path d="M5.57589 1.85547H3.78284V1.96756H5.57589V1.85547Z" fill="#737373"/>
<path d="M9.69039 3.23108H7.89734V3.34352H9.69039V3.23108Z" fill="#737373"/>
<path d="M6.16073 5.39392H4.36768V5.50601H6.16073V5.39392Z" fill="#737373"/>
</g>
<defs>
<clipPath id="clip0_480_30">
<rect width="11" height="10.9" fill="white"/>
</clipPath>
</defs>
</svg>
