<svg width="11" height="11" viewBox="0 0 11 11" fill="none" xmlns="http://www.w3.org/2000/svg">
<g clip-path="url(#clip0_480_100)">
<path d="M1.02966 0V1.0374L1.48284 0.897579V0.453181H10.5472V6.23141H3.33421L3.31067 6.68424H11V0H1.02966Z" fill="#737373"/>
<path d="M1.7509 3.8237C2.49225 3.8237 3.09323 3.22271 3.09323 2.48137C3.09323 1.74002 2.49225 1.13904 1.7509 1.13904C1.00955 1.13904 0.408569 1.74002 0.408569 2.48137C0.408569 3.22271 1.00955 3.8237 1.7509 3.8237Z" fill="#737373"/>
<path d="M2.89017 10.0617V7.67214V7.44696V7.14132H2.97554L3.10025 4.71522L5.41569 3.51588L5.11146 2.9292L2.99451 4.02562H2.23921L1.72736 4.61897L1.23237 4.02562L0.144737 4.2227L0.0751788 6.64036H0.536088L0.561031 7.14132H0.631292V7.44696V7.67214V10.0617H0.538899L0 10.179V10.6751H0.458802L0.994187 10.5873L0.999106 10.6751H1.59175V10.1218V10.0617V7.67214H1.92936V10.0617V10.1218V10.6751H2.52271L2.52763 10.5873L3.06266 10.6751H3.52146V10.179L2.98291 10.0617H2.89017Z" fill="#737373"/>
<path d="M9.68263 2.02771H3.87805V2.19739H9.68263V2.02771Z" fill="#737373"/>
<path d="M9.68263 1.43298H3.87805V1.60301H9.68263V1.43298Z" fill="#737373"/>
<path d="M9.68263 2.60815H3.87805V2.77819H9.68263V2.60815Z" fill="#737373"/>
<path d="M9.68264 3.1604H5.45752L5.5457 3.33008H9.68264V3.1604Z" fill="#737373"/>
<path d="M5.06824 3.9104H9.6826V3.74072H5.41814L5.06824 3.9104Z" fill="#737373"/>
<path d="M3.87805 4.49389V4.50232H9.68263V4.33264H4.16753L3.87805 4.49389Z" fill="#737373"/>
<path d="M10.107 5.15796H8.33252V5.81771H10.107V5.15796Z" fill="#737373"/>
</g>
<defs>
<clipPath id="clip0_480_100">
<rect width="11" height="11" fill="white"/>
</clipPath>
</defs>
</svg>
