<svg width="391" height="336" viewBox="0 0 391 336" fill="none" xmlns="http://www.w3.org/2000/svg">
<g clip-path="url(#clip0_531_39)">
<path d="M266.938 102.908C266.938 47.9951 222.757 3.16992 167.795 3.16992C112.834 3.16992 68.6523 47.9951 68.6523 102.908C68.6523 157.827 113.138 202.646 167.795 202.646C222.453 202.646 266.938 157.827 266.938 102.908ZM91.3211 102.908C91.3211 60.5046 125.704 26.1363 167.795 26.1363C209.887 26.1363 244.27 60.5046 244.27 102.908C244.27 145.312 209.887 179.68 167.795 179.68C125.704 179.68 91.3211 145.312 91.3211 102.908Z" fill="#737373" stroke="#737373" stroke-width="6" stroke-linecap="round"/>
<path d="M315.752 329.345L316.185 331.829H318.707H335.673H339.182L338.637 328.363C325.897 247.374 255.536 188.609 171.665 188.609C87.7852 188.609 17.7347 247.381 4.69441 328.352L4.13445 331.829H7.65625H24.6227H27.115L27.5718 329.379C40.3978 260.585 100.15 211.278 171.963 211.278C243.784 211.278 303.808 260.886 315.752 329.345Z" fill="#737373" stroke="#737373" stroke-width="6" stroke-linecap="round"/>
<path d="M289.862 188.925L289.855 188.922L289.848 188.92L287.253 187.968L289.445 186.451L289.459 186.441L289.473 186.431C314.803 168.515 329.964 139.158 329.35 108.21C329.033 83.2421 316.007 59.0622 297.564 42.1914C279.137 25.3347 254.763 15.3037 231.374 19.5558L226.013 20.5305L229.129 25.0009L238.147 37.9376L239.082 39.2792L240.711 39.4226C276.168 42.5428 304.505 72.3412 304.788 108.294L304.788 108.307L304.789 108.32C305.072 127.011 298.004 144.579 284.938 158.219C271.891 171.543 254.328 179.188 235.633 179.478H235.604C226.414 179.478 216.795 179.478 207.455 180.081L207.384 180.085L207.314 180.093C206.065 180.224 204.565 180.294 202.809 180.376L202.638 180.384C200.855 180.468 198.862 180.564 196.88 180.76C193.462 181.099 189.439 181.777 186.316 183.685C186.288 183.682 186.26 183.678 186.231 183.676C186.068 183.659 185.873 183.645 185.654 183.645H183.972L182.921 184.959L179.349 189.424L179.117 189.713L178.97 190.007C178.957 190.026 178.913 190.087 178.815 190.198C178.646 190.393 178.434 190.606 178.119 190.921L176.335 192.705L177.179 194.394C177.179 194.436 177.179 194.482 177.178 194.532C177.17 195.054 177.136 195.732 177.098 196.496L177.096 196.536C177.06 197.25 177.021 198.043 177.01 198.699C177.005 199.03 177.006 199.396 177.027 199.735C177.038 199.903 177.057 200.122 177.096 200.357C177.124 200.527 177.207 200.998 177.463 201.51L178.112 202.807L179.487 203.265C180.439 203.582 181.599 203.749 182.746 203.858C183.951 203.972 185.392 204.042 187.022 204.085C190.283 204.171 194.511 204.151 199.521 204.114C200.246 204.109 200.989 204.103 201.75 204.097C211.525 204.021 224.128 203.924 238.836 204.336L238.87 204.337L238.903 204.337C303.485 204.914 357.012 262.46 362.247 327.029L362.491 330.034L365.499 330.238L383.061 331.429L387.036 331.698L386.791 327.722C383.149 268.534 345.84 209.725 289.862 188.925ZM186.978 183.784C186.983 183.784 186.984 183.784 186.981 183.784L186.978 183.784Z" fill="#737373" stroke="#737373" stroke-width="7" stroke-linecap="round"/>
</g>
<defs>
<clipPath id="clip0_531_39">
<rect width="391" height="336" fill="white"/>
</clipPath>
</defs>
</svg>
