<svg width="532" height="532" viewBox="0 0 532 532" fill="none" xmlns="http://www.w3.org/2000/svg">
<path d="M264.961 4.15625C239.047 4.15625 217.933 25.27 217.933 51.1842C217.933 77.0777 238.839 98.1914 264.961 98.1914C290.667 98.1914 311.968 77.0777 311.968 51.1842C311.968 25.27 290.875 4.15625 264.961 4.15625ZM324.188 108.062H205.734C173.336 108.062 147.547 135.93 147.547 168.328V234.828H189.109V178.719C189.109 175.165 191.79 172.484 195.344 172.484C198.897 172.484 201.578 175.165 201.578 178.719V234.828H328.344V178.719C328.344 175.165 331.025 172.484 334.578 172.484C338.132 172.484 340.812 175.165 340.812 178.719V234.828H382.375V168.328C382.375 136.138 356.378 108.062 324.188 108.062ZM24.9375 245.219V301.328H72.7344V527.844H457.188V301.328H507.062V245.219H24.9375ZM265.855 489.087C212.675 489.087 169.513 445.924 169.513 392.745C169.513 339.275 212.384 295.821 265.855 295.821C319.325 295.821 362.487 338.984 362.487 392.454C362.487 445.924 319.034 489.087 265.855 489.087Z" fill="#737373"/>
<path fill-rule="evenodd" clip-rule="evenodd" d="M321.124 444.613H315.624V455.259C315.624 458.963 312.597 462 308.883 462H301.991C298.287 462 295.25 458.963 295.25 455.259V444.613H235.692V455.259C235.692 458.963 232.655 462 228.951 462H222.059C218.355 462 215.318 458.963 215.318 455.259V444.613H210V360.15C210 352.37 214.541 346.709 223.674 343.197C232.523 339.746 246.49 338 265.562 338C284.634 338 298.6 339.746 307.45 343.197C316.593 346.719 321.124 352.37 321.124 360.16V444.613ZM237.559 424.703H293.565C293.938 424.703 294.241 425.187 294.241 425.783V429.012C294.241 429.607 293.938 430.092 293.565 430.092H237.559C237.186 430.092 236.883 429.607 236.883 429.012V425.783C236.883 425.187 237.186 424.703 237.559 424.703ZM237.559 432.867H293.565C293.938 432.867 294.241 433.351 294.241 433.947V437.176C294.241 437.771 293.938 438.256 293.565 438.256H237.559C237.186 438.256 236.883 437.771 236.883 437.176V433.947C236.883 433.351 237.186 432.867 237.559 432.867ZM218.84 360.604H260.355C261.435 360.604 262.323 361.492 262.323 362.582V391.433C262.323 392.512 261.435 393.4 260.355 393.4H218.84C217.76 393.4 216.872 392.512 216.872 391.433V362.572C216.862 361.492 217.75 360.604 218.84 360.604ZM270.628 360.604H312.143C313.222 360.604 314.12 361.492 314.12 362.582V391.433C314.12 392.512 313.232 393.4 312.143 393.4H270.628C269.548 393.4 268.66 392.512 268.66 391.433V362.572C268.66 361.492 269.548 360.604 270.628 360.604ZM315.563 432.382C315.563 430.374 314.877 428.699 313.495 427.317C312.112 425.934 310.407 425.248 308.429 425.248C306.492 425.248 304.816 425.944 303.404 427.317C301.991 428.699 301.295 430.374 301.295 432.382C301.295 434.32 301.991 435.965 303.404 437.347C304.816 438.73 306.492 439.416 308.429 439.416C310.407 439.416 312.112 438.73 313.495 437.347C314.877 435.965 315.563 434.33 315.563 432.382ZM229.829 432.382C229.829 430.374 229.133 428.699 227.76 427.317C226.378 425.934 224.703 425.248 222.695 425.248C220.727 425.248 219.011 425.944 217.629 427.317C216.246 428.699 215.59 430.374 215.59 432.382C215.59 434.32 216.246 435.965 217.629 437.347C219.011 438.73 220.717 439.416 222.695 439.416C224.703 439.416 226.378 438.73 227.76 437.347C229.133 435.965 229.829 434.33 229.829 432.382Z" fill="#737373"/>
</svg>
