<svg width="373" height="373" viewBox="0 0 373 373" fill="none" xmlns="http://www.w3.org/2000/svg">
<g clip-path="url(#clip0_532_51)">
<path d="M332.798 103.611H40.2006C35.0344 103.611 30.0799 105.664 26.4269 109.317C22.7739 112.97 20.7217 117.924 20.7217 123.09V312.077C20.7217 317.243 22.7739 322.198 26.4269 325.851C30.0799 329.504 35.0344 331.556 40.2006 331.556H332.798C337.964 331.556 342.919 329.504 346.572 325.851C350.225 322.198 352.277 317.243 352.277 312.077V123.09C352.277 117.924 350.225 112.97 346.572 109.317C342.919 105.664 337.964 103.611 332.798 103.611ZM331.555 310.834H41.4439V124.334H331.555V310.834Z" fill="#737373"/>
<path d="M312.284 31.0828C312.284 28.3349 311.192 25.6995 309.249 23.7564C307.306 21.8133 304.671 20.7217 301.923 20.7217H73.9783C71.2304 20.7217 68.595 21.8133 66.6519 23.7564C64.7088 25.6995 63.6172 28.3349 63.6172 31.0828V41.4439H312.284V31.0828Z" fill="#737373"/>
<path d="M332.799 72.5271C332.799 69.7792 331.707 67.1438 329.764 65.2007C327.821 63.2576 325.185 62.166 322.437 62.166H53.0486C50.3007 62.166 47.6653 63.2576 45.7222 65.2007C43.7791 67.1438 42.6875 69.7792 42.6875 72.5271V82.8882H332.799V72.5271Z" fill="#737373"/>
<path d="M132.829 277.574C135.7 279.436 139.042 280.442 142.464 280.475C144.931 280.469 147.368 279.94 149.614 278.921L250.842 233.747C253.971 232.387 256.635 230.143 258.506 227.289C260.377 224.436 261.374 221.099 261.374 217.687C261.374 214.275 260.377 210.937 258.506 208.084C256.635 205.231 253.971 202.987 250.842 201.627L149.614 156.453C146.935 155.263 144.002 154.761 141.08 154.991C138.158 155.221 135.339 156.177 132.88 157.772C130.421 159.367 128.399 161.55 126.997 164.124C125.595 166.698 124.857 169.581 124.851 172.512V262.861C124.856 265.783 125.588 268.657 126.981 271.226C128.373 273.794 130.383 275.976 132.829 277.574ZM139.356 172.512C139.353 171.992 139.485 171.48 139.739 171.026C139.993 170.572 140.361 170.191 140.807 169.922C141.349 169.772 141.922 169.772 142.464 169.922C142.874 169.829 143.299 169.829 143.708 169.922L244.936 214.993C245.507 215.226 245.992 215.63 246.326 216.149C246.66 216.668 246.825 217.277 246.801 217.894C246.819 218.496 246.649 219.089 246.315 219.59C245.981 220.092 245.499 220.477 244.936 220.692L143.708 265.866C143.267 266.121 142.766 266.255 142.257 266.255C141.748 266.255 141.248 266.121 140.807 265.866C140.374 265.583 140.017 265.199 139.764 264.748C139.512 264.298 139.372 263.792 139.356 263.276V172.512Z" fill="#737373"/>
</g>
<defs>
<clipPath id="clip0_532_51">
<rect width="373" height="373" fill="white"/>
</clipPath>
</defs>
</svg>
