<svg width="537" height="385" viewBox="0 0 537 385" fill="none" xmlns="http://www.w3.org/2000/svg">
<g clip-path="url(#clip0_534_75)">
<path d="M90.2861 0.000976562C40.5584 0.000976562 0.0927734 40.4666 0.0927734 90.2064C0.0927734 139.946 40.5584 180.422 90.2861 180.422H446.718C496.445 180.422 536.911 139.956 536.911 90.2064C536.911 40.4666 496.445 0.000976562 446.718 0.000976562H90.2861ZM514.913 90.1943C514.913 127.8 484.324 158.412 446.718 158.412H90.2861C52.6799 158.412 22.091 127.813 22.091 90.1943C22.091 52.5881 52.6799 21.9871 90.2861 21.9871H446.718C484.324 21.9992 514.913 52.5881 514.913 90.1943Z" fill="#737373"/>
<path d="M446.718 204.038H90.2861C40.5584 204.038 0.0927734 244.504 0.0927734 294.244C0.0927734 343.983 40.5584 384.459 90.2861 384.459H446.718C496.445 384.459 536.911 343.993 536.911 294.244C536.911 244.504 496.455 204.038 446.718 204.038ZM446.718 362.449H90.2861C52.6799 362.449 22.091 331.85 22.091 294.231C22.091 256.625 52.6799 226.024 90.2861 226.024H446.718C484.324 226.024 514.913 256.623 514.913 294.231C514.913 331.85 484.324 362.449 446.718 362.449Z" fill="#737373"/>
<path d="M123.744 40.0605C96.0914 40.0605 73.5977 62.5543 73.5977 90.2068C73.5977 117.859 96.0914 140.363 123.744 140.363C151.396 140.363 173.9 117.869 173.9 90.2068C173.89 62.5644 151.396 40.0605 123.744 40.0605ZM123.744 118.365C108.223 118.365 95.5959 105.738 95.5959 90.2068C95.5959 74.6758 108.213 62.0588 123.744 62.0588C139.275 62.0588 151.902 74.6859 151.902 90.2068C151.902 105.728 139.265 118.365 123.744 118.365Z" fill="#737373"/>
<path d="M123.744 244.085C96.0914 244.085 73.5977 266.579 73.5977 294.231C73.5977 321.884 96.0914 344.378 123.744 344.378C151.396 344.378 173.9 321.884 173.9 294.231C173.9 266.579 151.396 244.085 123.744 244.085ZM123.744 322.389C108.223 322.389 95.5959 309.762 95.5959 294.241C95.5959 278.72 108.213 266.093 123.744 266.093C139.275 266.093 151.902 278.72 151.902 294.241C151.902 309.762 139.265 322.389 123.744 322.389Z" fill="#737373"/>
</g>
<defs>
<clipPath id="clip0_534_75">
<rect width="537" height="384.727" fill="white"/>
</clipPath>
</defs>
</svg>
