<svg width="398" height="413" viewBox="0 0 398 413" fill="none" xmlns="http://www.w3.org/2000/svg">
<path d="M15.3027 177.854C15.3027 172.164 17.7591 166.751 22.0416 163.004L186.753 18.8813C194.193 12.3713 205.302 12.3713 212.742 18.8813L377.453 163.004C381.736 166.751 384.192 172.164 384.192 177.854V379.723C384.192 390.621 375.357 399.456 364.459 399.456H288.647C277.749 399.456 268.914 390.621 268.914 379.723V307.233C268.914 288.89 261.626 271.297 248.655 258.326C235.684 245.355 218.09 238.067 199.747 238.067C181.402 238.067 163.811 245.355 150.839 258.326C137.868 271.297 130.581 288.888 130.581 307.233V379.722C130.581 390.621 121.746 399.456 110.848 399.456H35.0362C24.1378 399.456 15.303 390.621 15.3029 379.723L15.3027 177.854Z" fill="black" stroke="black" stroke-width="26.9336" stroke-linecap="round" stroke-linejoin="round"/>
</svg>
