<svg width="438" height="411" viewBox="0 0 438 411" fill="none" xmlns="http://www.w3.org/2000/svg">
<g clip-path="url(#clip0_433_46)">
<path fill-rule="evenodd" clip-rule="evenodd" d="M246.009 219.276C246.009 214.274 244.574 209.654 242.223 205.609H195.126C192.775 209.654 191.34 214.274 191.34 219.276C191.34 234.365 203.586 246.61 218.674 246.61C233.763 246.61 246.009 234.365 246.009 219.276ZM273.343 219.276C273.343 249.467 248.865 273.945 218.674 273.945C188.484 273.945 164.006 249.467 164.006 219.276C164.006 214.52 164.744 209.969 165.933 205.609H0V355.948C0 386.138 24.4779 410.616 54.6686 410.616H382.68C412.871 410.616 437.349 386.138 437.349 355.948V205.609H271.416C272.605 209.969 273.343 214.52 273.343 219.276ZM273.343 55.2703H164.006V41.6031C164.006 34.0589 170.129 27.936 177.673 27.936H259.676C267.22 27.936 273.343 34.0589 273.343 41.6031V55.2703ZM382.68 55.2703H300.677V27.936C300.677 12.8475 288.432 0.601685 273.343 0.601685H164.006C148.917 0.601685 136.672 12.8475 136.672 27.936V55.2703H54.6686C24.4779 55.2703 0 79.7482 0 109.939V178.275H437.349V109.939C437.349 79.7482 412.871 55.2703 382.68 55.2703Z" fill="black"/>
</g>
<defs>
<clipPath id="clip0_433_46">
<rect width="438" height="411" fill="white"/>
</clipPath>
</defs>
</svg>
