<svg width="398" height="414" viewBox="0 0 398 414" fill="none" xmlns="http://www.w3.org/2000/svg">
<g clip-path="url(#clip0_422_14)">
<path d="M15.8701 178.679C15.8701 173.041 18.304 167.677 22.5473 163.964L185.751 21.1606C193.123 14.7102 204.131 14.7102 211.502 21.1606L374.706 163.964C378.95 167.677 381.384 173.041 381.384 178.679V378.7C381.384 389.498 372.63 398.252 361.831 398.252H286.713C275.915 398.252 267.161 389.498 267.161 378.7V306.874C267.161 288.699 259.939 271.266 247.087 258.414C234.235 245.561 216.802 238.34 198.627 238.34C180.449 238.34 163.019 245.561 150.166 258.414C137.314 271.266 130.093 288.697 130.093 306.874V378.7C130.093 389.498 121.339 398.252 110.541 398.252H35.423C24.6244 398.252 15.8703 389.498 15.8703 378.7L15.8701 178.679Z" stroke="black" stroke-width="31.3024" stroke-linecap="round" stroke-linejoin="round"/>
</g>
<defs>
<clipPath id="clip0_422_14">
<rect width="398" height="414" fill="white"/>
</clipPath>
</defs>
</svg>
