<svg width="375" height="414" viewBox="0 0 375 414" fill="none" xmlns="http://www.w3.org/2000/svg">
<path d="M316.913 163.914V150.432C316.913 76.4087 259.097 16.401 187.778 16.401C116.458 16.401 58.6417 76.4087 58.6417 150.432V163.914C58.6417 180.094 54.0276 195.91 45.3807 209.372L24.1913 242.361C4.83677 272.492 19.6124 313.45 53.2745 322.979C141.335 347.906 234.221 347.906 322.28 322.979C355.944 313.45 370.719 272.492 351.363 242.361L330.175 209.372C321.528 195.91 316.913 180.094 316.913 163.914Z" stroke="black" stroke-width="29.6558"/>
<path d="M101.675 341.674C114.208 375.116 148.025 399.075 187.777 399.075C227.527 399.075 261.346 375.116 273.878 341.674" stroke="black" stroke-width="29.6558" stroke-linecap="round"/>
</svg>
