<svg width="413" height="413" viewBox="0 0 413 413" fill="none" xmlns="http://www.w3.org/2000/svg">
<g clip-path="url(#clip0_439_6)">
<path d="M208.835 235.57C207.488 235.378 205.757 235.378 204.217 235.57C170.355 234.416 143.419 206.71 143.419 172.655C143.419 137.831 171.51 109.549 206.526 109.549C241.35 109.549 269.633 137.831 269.633 172.655C269.44 206.71 242.697 234.416 208.835 235.57Z" stroke="black" stroke-width="27.6902" stroke-linecap="round" stroke-linejoin="round"/>
<path d="M336.203 348.52C301.956 379.881 256.55 398.928 206.526 398.928C156.503 398.928 111.097 379.881 76.8496 348.52C78.7736 330.434 90.3175 312.734 110.904 298.881C163.621 263.864 249.816 263.864 302.148 298.881C322.735 312.734 334.279 330.434 336.203 348.52Z" stroke="black" stroke-width="27.6902" stroke-linecap="round" stroke-linejoin="round"/>
<path d="M206.528 398.926C312.786 398.926 398.927 312.785 398.927 206.527C398.927 100.269 312.786 14.1289 206.528 14.1289C100.27 14.1289 14.1299 100.269 14.1299 206.527C14.1299 312.785 100.27 398.926 206.528 398.926Z" stroke="black" stroke-width="27.6902" stroke-linecap="round" stroke-linejoin="round"/>
</g>
<defs>
<clipPath id="clip0_439_6">
<rect width="413" height="413" fill="white"/>
</clipPath>
</defs>
</svg>
