<svg width="413" height="413" viewBox="0 0 413 413" fill="none" xmlns="http://www.w3.org/2000/svg">
<path fill-rule="evenodd" clip-rule="evenodd" d="M173.927 314.323C93.5744 314.323 28.4369 250.322 28.4369 171.248C28.4369 92.1727 93.5744 28.0446 173.927 28.0446C254.279 28.0446 319.43 92.1727 319.43 171.248C319.43 250.322 254.279 314.323 173.927 314.323ZM406.782 388.416L301.277 284.558C328.895 254.538 345.873 214.937 345.873 171.248C345.873 77.7373 268.893 1.98389 173.927 1.98389C78.9602 1.98389 1.98047 77.7373 1.98047 171.248C1.98047 264.63 78.9602 340.383 173.927 340.383C214.959 340.383 252.593 326.204 282.153 302.571L388.08 406.811C393.254 411.92 401.621 411.92 406.782 406.811C411.956 401.829 411.956 393.526 406.782 388.416Z" fill="#737373"/>
</svg>
