<svg width="371" height="407" viewBox="0 0 371 407" fill="none" xmlns="http://www.w3.org/2000/svg">
<g clip-path="url(#clip0_427_33)">
<path d="M110.306 370.575C127.641 392.613 154.875 406.814 185.499 406.814C216.123 406.814 243.357 392.613 260.693 370.575C210.777 377.34 160.222 377.34 110.306 370.575Z" fill="black"/>
<path d="M324.606 144.69V159.202C324.606 176.618 329.578 193.645 338.892 208.135L361.717 243.648C382.567 276.084 366.651 320.171 330.388 330.429C235.529 357.26 135.471 357.26 40.6113 330.429C4.34998 320.171 -11.5665 276.084 9.28243 243.648L32.108 208.135C41.4226 193.645 46.3929 176.618 46.3929 159.202V144.69C46.3929 65.0075 108.673 0.412109 185.5 0.412109C262.326 0.412109 324.606 65.0075 324.606 144.69Z" fill="black"/>
</g>
<defs>
<clipPath id="clip0_427_33">
<rect width="371" height="407" fill="white"/>
</clipPath>
</defs>
</svg>
