<svg width="532" height="532" viewBox="0 0 532 532" fill="none" xmlns="http://www.w3.org/2000/svg">
<g clip-path="url(#clip0_485_6)">
<path d="M349.125 282.625C349.125 304.671 340.367 325.814 324.778 341.403C309.189 356.992 288.046 365.75 266 365.75C243.954 365.75 222.811 356.992 207.222 341.403C191.633 325.814 182.875 304.671 182.875 282.625C182.875 260.579 191.633 239.436 207.222 223.847C222.811 208.258 243.954 199.5 266 199.5C288.046 199.5 309.189 208.258 324.778 223.847C340.367 239.436 349.125 260.579 349.125 282.625Z" fill="#737373"/>
<path d="M66.5 133C48.8631 133 31.9486 140.006 19.4774 152.477C7.00623 164.949 0 181.863 0 199.5L0 399C0 416.637 7.00623 433.551 19.4774 446.023C31.9486 458.494 48.8631 465.5 66.5 465.5H465.5C483.137 465.5 500.051 458.494 512.523 446.023C524.994 433.551 532 416.637 532 399V199.5C532 181.863 524.994 164.949 512.523 152.477C500.051 140.006 483.137 133 465.5 133H426.531C408.896 132.996 391.984 125.988 379.515 113.516L351.985 85.9845C339.516 73.5125 322.604 66.5038 304.969 66.5H227.031C209.396 66.5038 192.484 73.5125 180.016 85.9845L152.484 113.516C140.016 125.988 123.104 132.996 105.469 133H66.5ZM83.125 199.5C78.7158 199.5 74.4871 197.748 71.3694 194.631C68.2516 191.513 66.5 187.284 66.5 182.875C66.5 178.466 68.2516 174.237 71.3694 171.119C74.4871 168.002 78.7158 166.25 83.125 166.25C87.5342 166.25 91.7629 168.002 94.8806 171.119C97.9984 174.237 99.75 178.466 99.75 182.875C99.75 187.284 97.9984 191.513 94.8806 194.631C91.7629 197.748 87.5342 199.5 83.125 199.5ZM382.375 282.625C382.375 313.49 370.114 343.09 348.29 364.915C326.465 386.739 296.865 399 266 399C235.135 399 205.535 386.739 183.71 364.915C161.886 343.09 149.625 313.49 149.625 282.625C149.625 251.76 161.886 222.16 183.71 200.335C205.535 178.511 235.135 166.25 266 166.25C296.865 166.25 326.465 178.511 348.29 200.335C370.114 222.16 382.375 251.76 382.375 282.625Z" fill="#737373"/>
</g>
<defs>
<clipPath id="clip0_485_6">
<rect width="532" height="532" fill="white"/>
</clipPath>
</defs>
</svg>
