<svg width="856" height="855" viewBox="0 0 856 855" fill="none" xmlns="http://www.w3.org/2000/svg">
<g clip-path="url(#clip0_435_2)">
<path d="M228.382 357.252L332.691 355.86L340.484 357.878C361.569 369.986 381.401 383.903 399.911 399.56C413.271 410.902 426.075 423.219 438.183 436.579C475.62 376.388 515.493 321.067 557.592 270.27C603.727 214.601 652.646 164.012 704.07 117.877L714.229 113.98H828.072L805.108 139.448C734.618 217.802 670.599 298.8 612.773 382.303C554.878 466.014 503.176 552.301 457.18 641.092L442.845 668.718L429.693 640.605C405.408 588.555 376.391 540.749 341.737 498.024C307.083 455.298 266.793 417.374 219.823 385.156L228.382 357.252Z" fill="#39B54A"/>
<path d="M427.535 0C493.85 0 556.616 15.1001 612.703 42.0298C589.739 60.1917 568.446 77.5881 548.614 94.4278C510.829 80.7195 470.121 73.2042 427.604 73.2042C329.767 73.2042 241.184 112.868 177.096 177.026C113.007 241.184 73.2738 329.697 73.2738 427.535C73.2738 525.372 112.938 613.885 177.096 678.044C241.254 742.202 329.767 781.865 427.604 781.865C525.442 781.865 614.025 742.202 678.113 678.044C742.271 613.885 781.865 525.372 781.865 427.535C781.865 404.293 779.639 381.469 775.324 359.48C793.695 335.542 812.553 311.605 831.758 287.946C846.858 331.646 855.07 378.686 855.07 427.535C855.07 545.552 807.195 652.505 729.885 729.815C652.505 807.195 545.622 855.07 427.604 855.07C309.587 855.07 202.703 807.195 125.324 729.815C47.875 652.436 0 545.552 0 427.535C0 309.448 47.875 202.564 125.185 125.254C202.564 47.875 309.448 0 427.535 0Z" fill="#737373"/>
</g>
<defs>
<clipPath id="clip0_435_2">
<rect width="855.07" height="855" fill="white"/>
</clipPath>
</defs>
</svg>
