<svg width="20" height="20" viewBox="0 0 20 20" fill="none" xmlns="http://www.w3.org/2000/svg">
<path d="M10.0007 5.41634C7.47065 5.41634 5.41732 7.46967 5.41732 9.99967C5.41732 12.5297 7.47065 14.583 10.0007 14.583C12.5307 14.583 14.584 12.5297 14.584 9.99967C14.584 7.46967 12.5307 5.41634 10.0007 5.41634ZM10.0007 0.833008C4.94065 0.833008 0.833984 4.93967 0.833984 9.99967C0.833984 15.0597 4.94065 19.1663 10.0007 19.1663C15.0607 19.1663 19.1673 15.0597 19.1673 9.99967C19.1673 4.93967 15.0607 0.833008 10.0007 0.833008ZM10.0007 17.333C5.94898 17.333 2.66732 14.0513 2.66732 9.99967C2.66732 5.94801 5.94898 2.66634 10.0007 2.66634C14.0523 2.66634 17.334 5.94801 17.334 9.99967C17.334 14.0513 14.0523 17.333 10.0007 17.333Z" fill="#0026BE"/>
</svg>
