<svg width="668" height="468" viewBox="0 0 668 468" fill="none" xmlns="http://www.w3.org/2000/svg">
<g clip-path="url(#clip0_465_2)">
<path d="M0.666504 33.9998C0.666504 15.5905 15.5905 0.666504 33.9998 0.666504H634C652.41 0.666504 667.333 15.5905 667.333 33.9998C667.333 52.4092 652.41 67.3332 634 67.3332H33.9998C15.5905 67.3332 0.666504 52.4092 0.666504 33.9998Z" fill="#737373"/>
<path d="M0.666504 234C0.666504 215.59 15.5905 200.667 33.9998 200.667H634C652.41 200.667 667.333 215.59 667.333 234C667.333 252.41 652.41 267.333 634 267.333H33.9998C15.5905 267.333 0.666504 252.41 0.666504 234Z" fill="#737373"/>
<path d="M33.9998 400.667C15.5905 400.667 0.666504 415.59 0.666504 434C0.666504 452.41 15.5905 467.333 33.9998 467.333H634C652.41 467.333 667.333 452.41 667.333 434C667.333 415.59 652.41 400.667 634 400.667H33.9998Z" fill="#737373"/>
</g>
<defs>
<clipPath id="clip0_465_2">
<rect width="668" height="468" fill="white"/>
</clipPath>
</defs>
</svg>
