<svg width="308" height="308" viewBox="0 0 308 308" fill="none" xmlns="http://www.w3.org/2000/svg">
<g clip-path="url(#clip0_450_8)">
<path fill-rule="evenodd" clip-rule="evenodd" d="M221.375 144.375H119.485L159.159 104.72C162.913 100.966 162.913 94.9021 159.159 91.0521C155.396 87.2984 149.303 87.2984 145.54 91.0521L91.0909 145.53C88.7905 147.84 88.0686 151.016 88.598 154C88.0686 156.984 88.7905 160.16 91.0909 162.47L145.54 216.948C149.303 220.702 155.396 220.702 159.159 216.948C162.913 213.194 162.913 207.034 159.159 203.28L119.485 163.625H221.375C226.688 163.625 231 159.294 231 154C231 148.706 226.688 144.375 221.375 144.375ZM154 288.75C79.5795 288.75 19.25 228.401 19.25 154C19.25 79.5987 79.5795 19.25 154 19.25C228.42 19.25 288.75 79.5987 288.75 154C288.75 228.401 228.42 288.75 154 288.75ZM154 0C68.9535 0 0 68.915 0 154C0 239.085 68.9535 308 154 308C239.047 308 308 239.085 308 154C308 68.915 239.047 0 154 0Z" fill="white"/>
</g>
<defs>
<clipPath id="clip0_450_8">
<rect width="308" height="308" fill="white"/>
</clipPath>
</defs>
</svg>
