<svg width="461" height="409" viewBox="0 0 461 409" fill="none" xmlns="http://www.w3.org/2000/svg">
<g clip-path="url(#clip0_443_13)">
<path d="M333.048 337.994C299.238 368.955 254.41 387.76 205.024 387.76C155.638 387.76 110.811 368.955 77 337.994C78.8995 320.139 90.2963 302.663 110.621 288.987C162.666 254.417 247.762 254.417 299.427 288.987C319.752 302.663 331.149 320.139 333.048 337.994Z" fill="#737373" stroke="#737373" stroke-width="11" stroke-linecap="round" stroke-linejoin="round"/>
<path d="M204.562 394.539C309.466 394.539 394.509 309.496 394.509 204.592C394.509 99.6873 309.466 14.6453 204.562 14.6453C99.6572 14.6453 14.6152 99.6873 14.6152 204.592C14.6152 309.496 99.6572 394.539 204.562 394.539Z" stroke="#737373" stroke-width="27.402" stroke-linecap="round" stroke-linejoin="round"/>
<path d="M207.416 235.081C206.069 234.889 204.338 234.889 202.798 235.081C168.936 233.927 142 206.221 142 172.166C142 137.342 170.091 109.06 205.107 109.06C239.931 109.06 268.214 137.342 268.214 172.166C268.022 206.221 241.278 233.927 207.416 235.081Z" fill="#737373" stroke="#737373" stroke-width="27.6902" stroke-linecap="round" stroke-linejoin="round"/>
<path d="M426.457 15C448.132 15 460.5 27.24 460.5 48.9787V108.521C460.5 130.132 448.196 142.5 426.521 142.5H366.979C345.24 142.5 333 130.132 333 108.521V48.9787C333 27.24 345.24 15 366.979 15H426.457ZM396.686 50.1262C393.754 50.1262 391.395 52.485 391.395 55.4175V73.395H373.354C371.951 73.395 370.613 73.9687 369.593 74.925C368.636 75.945 368.062 77.2774 368.062 78.6862C368.062 81.6187 370.421 83.9775 373.354 84.0413H391.395V102.082C391.395 105.015 393.754 107.374 396.686 107.374C399.619 107.374 401.978 105.015 401.978 102.082V84.0413H420.082C423.015 83.9775 425.374 81.6187 425.374 78.6862C425.374 75.7537 423.015 73.395 420.082 73.395H401.978V55.4175C401.978 52.485 399.619 50.1262 396.686 50.1262Z" fill="#737373"/>
</g>
<defs>
<clipPath id="clip0_443_13">
<rect width="461" height="409" fill="white"/>
</clipPath>
</defs>
</svg>
