<svg width="409" height="409" viewBox="0 0 409 409" fill="none" xmlns="http://www.w3.org/2000/svg">
<g clip-path="url(#clip0_454_16)">
<path fill-rule="evenodd" clip-rule="evenodd" d="M0 40.8823C0 18.2757 18.3004 0 40.9 0H368.1C390.699 0 409 18.2757 409 40.8823V286.123C409 308.73 390.699 327.004 368.1 327.004H272.747C268.736 327.004 264.99 329.008 262.764 332.344L215.841 402.682C213.313 406.475 209.057 408.752 204.5 408.752C199.943 408.752 195.687 406.475 193.159 402.682L146.236 332.344C144.01 329.008 140.264 327.004 136.253 327.004H40.9C18.3004 327.004 0 308.73 0 286.123V40.8823ZM299.933 124.333C299.933 130.961 294.561 136.333 287.933 136.333H121.067C114.439 136.333 109.067 130.961 109.067 124.333V121.067C109.067 114.439 114.439 109.067 121.067 109.067H287.933C294.561 109.067 299.933 114.439 299.933 121.067V124.333ZM272.667 206.133C272.667 212.761 267.294 218.133 260.667 218.133H148.333C141.706 218.133 136.333 212.761 136.333 206.133V202.867C136.333 196.239 141.706 190.867 148.333 190.867H260.667C267.294 190.867 272.667 196.239 272.667 202.867V206.133Z" fill="#737373"/>
</g>
<defs>
<clipPath id="clip0_454_16">
<rect width="409" height="409" fill="white"/>
</clipPath>
</defs>
</svg>
