<svg width="317" height="357" viewBox="0 0 317 357" fill="none" xmlns="http://www.w3.org/2000/svg">
<g clip-path="url(#clip0_453_13)">
<path d="M161.191 154.775C159.75 154.57 157.898 154.57 156.252 154.775C120.038 153.541 91.2305 123.911 91.2305 87.4904C91.2305 50.2472 121.273 20 158.721 20C195.965 20 226.212 50.2472 226.212 87.4904C226.006 123.911 197.405 153.541 161.191 154.775Z" fill="#737373" stroke="#737373" stroke-width="38.1795" stroke-linecap="round" stroke-linejoin="round"/>
<path d="M297.369 283.523C269.591 320.307 212.183 337.433 158.684 337.433C105.186 337.433 52.766 317.743 20 283.523C22.0576 264.182 34.4034 245.252 56.4201 230.437C112.799 192.988 204.981 192.988 260.949 230.437C282.965 245.252 295.311 264.182 297.369 283.523Z" fill="#737373" stroke="#737373" stroke-width="38.1795" stroke-linecap="round" stroke-linejoin="round"/>
</g>
<defs>
<clipPath id="clip0_453_13">
<rect width="317" height="357" fill="white"/>
</clipPath>
</defs>
</svg>
