<svg width="508" height="410" viewBox="0 0 508 410" fill="none" xmlns="http://www.w3.org/2000/svg">
<g clip-path="url(#clip0_456_29)">
<path d="M0 27.8907V342.792C0 358.159 12.4583 370.618 27.8261 370.618H337.553V315.383C331.897 308.846 327.334 301.516 323.952 293.522C319.633 283.308 317.444 272.471 317.444 261.307C317.444 250.143 319.634 239.306 323.952 229.093C328.121 219.238 334.085 210.392 341.679 202.796C349.273 195.202 358.121 189.239 367.976 185.07C378.189 180.75 389.027 178.56 400.19 178.56C411.354 178.56 422.191 180.751 432.405 185.07C442.26 189.238 451.107 195.202 458.701 202.796C466.296 210.391 472.259 219.238 476.428 229.093C480.748 239.306 482.938 250.143 482.938 261.307C482.938 272.471 480.747 283.308 476.428 293.522C473.047 301.516 468.484 308.846 462.828 315.383V370.618H479.063C494.43 370.618 506.89 358.159 506.89 342.792V129.28H411.063C392.651 129.28 377.671 114.3 377.671 95.8883V0.0645752H27.8261C12.4578 0.0645752 0 12.5229 0 27.8907ZM61.7879 87.3913H339.705V118H61.7879V87.3913ZM61.7879 196.887H297.409V213.583H61.7879V196.887ZM61.7879 249.2H200.746V265.896H61.7879V249.2Z" fill="#737373"/>
<path d="M394.367 2.67886V95.8891C394.367 105.11 401.842 112.585 411.063 112.585H504.285H506.888L394.367 0.0604248V2.67886Z" fill="#737373"/>
<path d="M446.131 370.619V330.143C441.816 333.028 437.232 335.503 432.404 337.545C422.191 341.864 411.353 344.055 400.19 344.055C389.026 344.055 378.189 341.864 367.975 337.545C363.148 335.503 358.563 333.027 354.248 330.143V370.619V409.007L400.188 390.708L446.13 409.007V370.619H446.131Z" fill="#737373"/>
<path d="M454.478 298.932C457.997 293.865 460.826 288.281 462.826 282.317C465.039 275.718 466.24 268.653 466.24 261.307C466.24 224.829 436.667 195.257 400.189 195.257C363.711 195.257 334.139 224.829 334.139 261.308C334.139 268.653 335.34 275.718 337.552 282.318C339.552 288.282 342.381 293.864 345.9 298.932C348.361 302.476 351.158 305.767 354.247 308.759C366.135 320.271 382.334 327.36 400.189 327.36C418.044 327.36 434.242 320.272 446.13 308.759C449.219 305.766 452.017 302.475 454.478 298.932Z" fill="#737373"/>
</g>
<defs>
<clipPath id="clip0_456_29">
<rect width="508" height="409.068" fill="white"/>
</clipPath>
</defs>
</svg>
