<svg width="424" height="399" viewBox="0 0 424 399" fill="none" xmlns="http://www.w3.org/2000/svg">
<path d="M27.1706 330.155H207.854C203.437 317.681 201.194 304.613 201.194 291.205C201.194 275.438 204.285 260.135 210.382 245.721C216.267 231.806 224.69 219.311 235.417 208.585C246.143 197.858 258.637 189.436 272.552 183.55C286.966 177.454 302.27 174.363 318.037 174.363C333.804 174.363 349.108 177.454 363.521 183.55C364.932 184.147 366.325 184.777 367.706 185.426V140.112V64.3589C367.706 49.3531 355.542 37.1883 340.536 37.1883H312.299V18.8672C312.299 8.8635 304.19 0.75354 294.186 0.75354H269.577C259.573 0.75354 251.464 8.8635 251.464 18.8672V37.1879H214.273V18.8672C214.273 8.8635 206.163 0.75354 196.159 0.75354H171.549C161.546 0.75354 153.436 8.8635 153.436 18.8672V37.1879H116.245V18.8672C116.245 8.8635 108.135 0.75354 98.1315 0.75354H73.5217C63.5175 0.75354 55.408 8.8635 55.408 18.8672V37.1879H27.1706C12.1647 37.1879 0 49.3526 0 64.3584V140.112V302.985C0 317.99 12.1647 330.155 27.1706 330.155ZM20.3779 64.3589C20.3779 60.6134 23.4251 57.5663 27.1706 57.5663H55.4076V68.5961C55.4076 78.5999 63.5171 86.7099 73.5213 86.7099H98.131C108.135 86.7099 116.245 78.5999 116.245 68.5961V57.5663H153.435V68.5961C153.435 78.5999 161.545 86.7099 171.549 86.7099H196.159C206.162 86.7099 214.272 78.5999 214.272 68.5961V57.5663H251.463V68.5961C251.463 78.5999 259.573 86.7099 269.577 86.7099H294.187C304.191 86.7099 312.301 78.5999 312.301 68.5961V57.5663H340.537C344.283 57.5663 347.33 60.6134 347.33 64.3589V119.735H20.3775L20.3779 64.3589Z" fill="#737373"/>
<path d="M361.074 255.584L361.074 255.584C365.264 259.774 365.266 266.571 361.074 270.76C361.074 270.761 361.074 270.761 361.074 270.761L334.509 297.325L361.054 323.877C361.054 323.877 361.055 323.877 361.055 323.877C365.245 328.068 365.245 334.862 361.052 339.053L361.074 255.584ZM361.074 255.584C356.878 251.391 350.087 251.394 345.896 255.584L319.334 282.146L292.782 255.585L292.781 255.584C288.589 251.395 281.798 251.39 277.603 255.584C273.412 259.776 273.413 266.569 277.603 270.762L277.603 270.763L304.158 297.325L277.604 323.875L277.603 323.876C273.413 328.069 273.413 334.859 277.603 339.052L277.603 339.053C279.698 341.148 282.451 342.194 285.193 342.194C287.932 342.194 290.684 341.147 292.78 339.055L292.782 339.053L319.334 312.501L345.874 339.049L361.074 255.584ZM353.465 342.194C356.207 342.194 358.957 341.147 361.051 339.054L345.876 339.05C347.971 341.148 350.724 342.194 353.465 342.194Z" fill="#737373" stroke="#737373" stroke-width="5.86073"/>
<path d="M319.346 192.216C263.428 192.216 217.939 237.705 217.939 293.623C217.939 349.529 263.428 395.005 319.346 395.005C375.247 395.005 420.72 349.526 420.72 293.62C420.72 237.706 375.247 192.216 319.346 192.216ZM319.346 373.544C275.267 373.544 239.405 337.688 239.405 293.623C239.405 249.545 275.27 213.682 319.346 213.682C363.407 213.682 399.257 249.546 399.257 293.623C399.257 337.689 363.406 373.544 319.346 373.544Z" fill="#737373" stroke="#737373" stroke-width="5.86073"/>
</svg>
