<svg width="779" height="531" viewBox="0 0 779 531" fill="none" xmlns="http://www.w3.org/2000/svg">
<g clip-path="url(#clip0_464_151)">
<path fill-rule="evenodd" clip-rule="evenodd" d="M771.513 232.338C771.513 232.338 749.643 254.208 716.693 287.195C536.374 467.478 244.097 467.478 63.7769 287.195C30.827 254.208 8.95687 232.338 8.95687 232.338C-1.65229 221.765 -1.65229 204.53 8.95687 193.957C19.5298 183.348 36.7652 183.348 47.3382 193.957C47.3382 193.957 69.2082 215.827 102.194 248.777C261.259 407.878 519.211 407.878 678.276 248.777C711.262 215.827 733.132 193.957 733.132 193.957C743.705 183.348 760.94 183.348 771.513 193.957C782.122 204.53 782.122 221.765 771.513 232.338Z" fill="#737373"/>
<path fill-rule="evenodd" clip-rule="evenodd" d="M638.264 453.32L583.951 359.25C576.492 346.287 580.946 329.668 593.908 322.172C606.871 314.677 623.527 319.131 631.022 332.094L685.335 426.164C692.794 439.163 688.341 455.783 675.378 463.278C662.415 470.773 645.759 466.319 638.264 453.32Z" fill="#737373"/>
<path fill-rule="evenodd" clip-rule="evenodd" d="M363.084 502.816V394.19C363.084 379.199 375.25 367.033 390.241 367.033C405.231 367.033 417.397 379.199 417.397 394.19V502.816C417.397 517.807 405.231 529.973 390.241 529.973C375.25 529.973 363.084 517.807 363.084 502.816Z" fill="#737373"/>
<path fill-rule="evenodd" clip-rule="evenodd" d="M95.1345 426.164L149.448 332.094C156.943 319.131 173.599 314.677 186.562 322.172C199.524 329.668 203.978 346.287 196.519 359.25L142.206 453.32C134.711 466.319 118.055 470.773 105.092 463.278C92.1291 455.783 87.6755 439.163 95.1345 426.164Z" fill="#737373"/>
</g>
<defs>
<clipPath id="clip0_464_151">
<rect width="778.723" height="530.435" fill="white"/>
</clipPath>
</defs>
</svg>
