<svg width="821" height="821" viewBox="0 0 821 821" fill="none" xmlns="http://www.w3.org/2000/svg">
<g clip-path="url(#clip0_463_121)">
<path d="M667.158 307.687H598.783V222.218C598.783 172.35 578.973 124.523 543.71 89.2603C508.447 53.9976 460.621 34.1873 410.752 34.1873H376.564C326.695 34.1873 278.869 53.9976 243.606 89.2603C208.344 124.523 188.533 172.35 188.533 222.218V307.687H120.158C111.091 307.687 102.395 311.289 95.984 317.701C89.5726 324.112 85.9707 332.808 85.9707 341.875V752.125C85.9707 761.192 89.5726 769.888 95.984 776.299C102.395 782.71 111.091 786.312 120.158 786.312H667.158C676.225 786.312 684.921 782.71 691.332 776.299C697.744 769.888 701.346 761.192 701.346 752.125V341.875C701.346 332.808 697.744 324.112 691.332 317.701C684.921 311.289 676.225 307.687 667.158 307.687ZM256.908 222.218C256.908 190.484 269.515 160.049 291.955 137.609C314.395 115.169 344.83 102.562 376.564 102.562H410.752C442.487 102.562 472.922 115.169 495.362 137.609C517.802 160.049 530.408 190.484 530.408 222.218V307.687H256.908V222.218ZM239.814 598.281C229.672 598.281 219.757 595.273 211.324 589.638C202.891 584.004 196.318 575.995 192.437 566.624C188.555 557.254 187.54 546.943 189.519 536.995C191.497 527.048 196.381 517.91 203.553 510.738C210.725 503.567 219.862 498.683 229.81 496.704C239.758 494.725 250.069 495.741 259.439 499.622C268.809 503.503 276.818 510.076 282.453 518.509C288.088 526.943 291.096 536.857 291.096 547C291.334 553.798 290.171 560.573 287.679 566.903C285.186 573.233 281.417 578.982 276.607 583.792C271.797 588.603 266.048 592.371 259.718 594.864C253.388 597.357 246.613 598.52 239.814 598.281ZM393.658 598.281C383.516 598.281 373.601 595.273 365.168 589.638C356.735 584.004 350.162 575.995 346.28 566.624C342.399 557.254 341.384 546.943 343.362 536.995C345.341 527.048 350.225 517.91 357.397 510.738C364.569 503.567 373.706 498.683 383.654 496.704C393.601 494.725 403.912 495.741 413.283 499.622C422.653 503.503 430.662 510.076 436.297 518.509C441.932 526.943 444.939 536.857 444.939 547C445.178 553.798 444.015 560.573 441.522 566.903C439.03 573.233 435.261 578.982 430.451 583.792C425.64 588.603 419.891 592.371 413.562 594.864C407.232 597.357 400.457 598.52 393.658 598.281ZM547.502 598.281C537.359 598.281 527.445 595.273 519.012 589.638C510.578 584.004 504.006 575.995 500.124 566.624C496.243 557.254 495.227 546.943 497.206 536.995C499.185 527.048 504.069 517.91 511.241 510.738C518.412 503.567 527.55 498.683 537.497 496.704C547.445 494.725 557.756 495.741 567.126 499.622C576.497 503.503 584.506 510.076 590.141 518.509C595.776 526.943 598.783 536.857 598.783 547C599.022 553.798 597.859 560.573 595.366 566.903C592.874 573.233 589.105 578.982 584.294 583.792C579.484 588.603 573.735 592.371 567.405 594.864C561.076 597.357 554.301 598.52 547.502 598.281Z" fill="#737373"/>
</g>
<defs>
<clipPath id="clip0_463_121">
<rect width="820.5" height="820.5" fill="white" transform="translate(0.5)"/>
</clipPath>
</defs>
</svg>
