<svg width="779" height="531" viewBox="0 0 779 531" fill="none" xmlns="http://www.w3.org/2000/svg">
<g clip-path="url(#clip0_464_144)">
<path d="M389.356 527.73C474.346 527.73 543.243 458.833 543.243 373.843C543.243 288.853 474.346 219.956 389.356 219.956C304.366 219.956 235.469 288.853 235.469 373.843C235.469 458.833 304.366 527.73 389.356 527.73Z" fill="#737373"/>
<path fill-rule="evenodd" clip-rule="evenodd" d="M770.623 300.337C770.623 300.337 748.753 278.467 715.803 245.481C535.483 65.1977 243.206 65.1977 62.8863 245.481C29.9363 278.467 8.06625 300.337 8.06625 300.337C-2.54292 310.91 -2.54292 328.146 8.06625 338.719C18.6392 349.328 35.8746 349.328 46.4475 338.719C46.4475 338.719 68.3176 316.849 101.304 283.899C260.369 124.797 518.32 124.797 677.385 283.899C710.371 316.849 732.241 338.719 732.241 338.719C742.814 349.328 760.05 349.328 770.623 338.719C781.232 328.146 781.232 310.91 770.623 300.337Z" fill="#737373"/>
<path fill-rule="evenodd" clip-rule="evenodd" d="M637.373 79.3553L583.06 173.426C575.601 186.388 580.055 203.008 593.018 210.503C605.98 217.999 622.636 213.545 630.132 200.582L684.445 106.512C691.904 93.513 687.45 76.8931 674.487 69.3979C661.525 61.9027 644.869 66.3564 637.373 79.3553Z" fill="#737373"/>
<path fill-rule="evenodd" clip-rule="evenodd" d="M362.193 29.8597V138.486C362.193 153.476 374.36 165.643 389.35 165.643C404.34 165.643 416.506 153.476 416.506 138.486V29.8597C416.506 14.8693 404.34 2.70312 389.35 2.70312C374.36 2.70312 362.193 14.8693 362.193 29.8597Z" fill="#737373"/>
<path fill-rule="evenodd" clip-rule="evenodd" d="M94.2438 106.512L148.557 200.582C156.052 213.545 172.708 217.999 185.671 210.503C198.634 203.008 203.087 186.388 195.628 173.426L141.315 79.3553C133.82 66.3564 117.164 61.9027 104.201 69.3979C91.2385 76.8931 86.7848 93.513 94.2438 106.512Z" fill="#737373"/>
</g>
<defs>
<clipPath id="clip0_464_144">
<rect width="778.723" height="530.435" fill="white"/>
</clipPath>
</defs>
</svg>
