<svg width="760" height="755" viewBox="0 0 760 755" fill="none" xmlns="http://www.w3.org/2000/svg">
<g clip-path="url(#clip0_464_143)" filter="url(#filter0_d_464_143)">
<path d="M4 746.184C4 696.825 13.722 647.949 32.6108 602.348C51.4997 556.746 79.1855 515.311 114.088 480.409C148.99 445.507 190.424 417.821 236.026 398.932C281.628 380.043 330.503 370.322 379.862 370.322C429.221 370.322 478.097 380.044 523.699 398.932C569.3 417.821 610.735 445.507 645.637 480.409C680.539 515.311 708.225 556.746 727.114 602.348C746.003 647.949 755.725 696.825 755.725 746.184L4 746.184Z" fill="#737373"/>
<circle cx="379.861" cy="206.863" r="206.863" fill="#737373"/>
</g>
<defs>
<filter id="filter0_d_464_143" x="0" y="0" width="759.725" height="754.184" filterUnits="userSpaceOnUse" color-interpolation-filters="sRGB">
<feFlood flood-opacity="0" result="BackgroundImageFix"/>
<feColorMatrix in="SourceAlpha" type="matrix" values="0 0 0 0 0 0 0 0 0 0 0 0 0 0 0 0 0 0 127 0" result="hardAlpha"/>
<feOffset dy="4"/>
<feGaussianBlur stdDeviation="2"/>
<feComposite in2="hardAlpha" operator="out"/>
<feColorMatrix type="matrix" values="0 0 0 0 0 0 0 0 0 0 0 0 0 0 0 0 0 0 0.25 0"/>
<feBlend mode="normal" in2="BackgroundImageFix" result="effect1_dropShadow_464_143"/>
<feBlend mode="normal" in="SourceGraphic" in2="effect1_dropShadow_464_143" result="shape"/>
</filter>
<clipPath id="clip0_464_143">
<rect width="751.725" height="746.184" fill="white" transform="translate(4)"/>
</clipPath>
</defs>
</svg>
