<svg width="30" height="30" viewBox="0 0 30 30" fill="none" xmlns="http://www.w3.org/2000/svg">
<g clip-path="url(#clip0_150_69)">
<path fill-rule="evenodd" clip-rule="evenodd" d="M11.4371 15.621C11.2788 15.5966 11.135 15.5208 11.0313 15.4071C10.9275 15.2933 10.8706 15.1491 10.8706 15C10.8706 14.8509 10.9275 14.7067 11.0313 14.5929C11.135 14.4792 11.2788 14.4034 11.4371 14.379H18.8691C19.0274 14.4034 19.1712 14.4792 19.275 14.5929C19.3787 14.7067 19.4356 14.8509 19.4356 15C19.4356 15.1491 19.3787 15.2933 19.275 15.4071C19.1712 15.5208 19.0274 15.5966 18.8691 15.621H11.4371ZM20.4255 19.4021L21.0664 18.0579H23.4895C23.4551 17.956 23.4013 17.8606 23.3308 17.7762C23.2503 17.6831 23.1541 17.6026 23.046 17.538C22.9296 17.4685 22.8037 17.4138 22.6716 17.3754C22.5304 17.3327 22.3828 17.311 22.2342 17.3112H20.4255L21.0664 15.9689H27.998L27.3551 17.3112H25.6827C25.7484 17.362 25.8102 17.417 25.8678 17.4756C25.924 17.5343 25.9744 17.5976 26.0184 17.6647C26.059 17.7302 26.0957 17.7977 26.1283 17.867C26.1555 17.9276 26.1746 17.9911 26.1852 18.056H28L27.3571 19.4002H26.0448C25.9427 19.6375 25.7975 19.8569 25.6156 20.0486C25.4192 20.2564 25.1957 20.4406 24.9503 20.5969C24.6959 20.7608 24.423 20.8984 24.1365 21.0071C23.8468 21.115 23.5442 21.1899 23.2352 21.2302L26.877 24.7144H23.99L20.7348 21.406V20.1677H22.1711C22.3094 20.1681 22.4468 20.1476 22.578 20.1072C22.7097 20.0653 22.8349 20.0074 22.9504 19.9352C23.065 19.8691 23.168 19.7868 23.2555 19.6913C23.3335 19.6054 23.3935 19.5066 23.4325 19.4002H20.4255V19.4021ZM17.9414 24.7541C18.0325 24.7495 18.1238 24.7621 18.2095 24.7913C18.2952 24.8205 18.3736 24.8657 18.4398 24.924C18.5061 24.9823 18.5589 25.0525 18.595 25.1304C18.6311 25.2083 18.6497 25.2923 18.6497 25.3771C18.6497 25.4619 18.6311 25.5458 18.595 25.6237C18.5589 25.7016 18.5061 25.7719 18.4398 25.8302C18.3736 25.8885 18.2952 25.9336 18.2095 25.9628C18.1238 25.992 18.0325 26.0047 17.9414 26H4.56047C4.14677 25.9995 3.75017 25.8466 3.45764 25.5747C3.16512 25.3029 3.00054 24.9344 3 24.55V5.45003C3.00054 5.06561 3.16512 4.69708 3.45764 4.42526C3.75017 4.15343 4.14677 4.0005 4.56047 4H23.7316C24.1457 4 24.5428 4.15271 24.8357 4.42459C25.1287 4.69647 25.2936 5.06528 25.2941 5.45003V12.6624C25.2941 12.8278 25.2234 12.9865 25.0975 13.1035C24.9716 13.2205 24.8008 13.2862 24.6227 13.2862C24.4447 13.2862 24.2739 13.2205 24.148 13.1035C24.0221 12.9865 23.9513 12.8278 23.9513 12.6624V5.45003C23.9518 5.42347 23.9463 5.39712 23.935 5.37269C23.9238 5.34826 23.9072 5.3263 23.8862 5.30824C23.8662 5.28881 23.8422 5.27329 23.8157 5.26258C23.7891 5.25186 23.7606 5.24618 23.7316 5.24585H4.56047C4.50252 5.24701 4.44723 5.26865 4.40584 5.30635C4.36561 5.34502 4.34239 5.39627 4.34074 5.45003V24.5443C4.34228 24.598 4.36593 24.6491 4.4068 24.6871C4.44768 24.7251 4.50268 24.747 4.56047 24.7485L17.9414 24.7541ZM11.431 20.1923C11.2722 20.1654 11.1285 20.0876 11.0251 19.9723C10.9217 19.8571 10.865 19.7119 10.865 19.5618C10.865 19.4118 10.9217 19.2665 11.0251 19.1513C11.1285 19.0361 11.2722 18.9583 11.431 18.9313H17.2802C17.439 18.9583 17.5827 19.0361 17.6861 19.1513C17.7895 19.2665 17.8462 19.4118 17.8462 19.5618C17.8462 19.7119 17.7895 19.8571 17.6861 19.9723C17.5827 20.0876 17.439 20.1654 17.2802 20.1923H11.431ZM11.431 11.0592C11.2684 11.0453 11.1183 10.9724 11.0132 10.8563C10.9081 10.7402 10.8565 10.5903 10.8695 10.4391C10.8614 10.3638 10.8696 10.2878 10.8936 10.2155C10.9175 10.1432 10.9569 10.0761 11.0092 10.0182C11.0615 9.96022 11.1258 9.91258 11.1982 9.87805C11.2707 9.84352 11.3498 9.82281 11.431 9.81713H18.8691C19.032 9.83155 19.1823 9.90479 19.2877 10.0211C19.3931 10.1374 19.4452 10.2875 19.4327 10.4391C19.4457 10.5906 19.3938 10.7408 19.2882 10.8569C19.1827 10.973 19.0321 11.0457 18.8691 11.0592H11.431ZM8.2124 18.712C8.36893 18.712 8.52194 18.7552 8.65209 18.836C8.78224 18.9168 8.88368 19.0316 8.94358 19.166C9.00348 19.3004 9.01916 19.4483 8.98862 19.5909C8.95808 19.7336 8.88271 19.8646 8.77202 19.9675C8.66134 20.0703 8.52032 20.1404 8.3668 20.1687C8.21328 20.1971 8.05415 20.1825 7.90954 20.1269C7.76492 20.0712 7.64132 19.977 7.55436 19.856C7.4674 19.7351 7.42098 19.5929 7.42098 19.4475C7.42098 19.2524 7.50436 19.0654 7.65278 18.9274C7.8012 18.7895 8.0025 18.712 8.2124 18.712ZM8.2124 14.2088C8.36951 14.2084 8.52319 14.2514 8.65399 14.3323C8.78478 14.4132 8.8868 14.5283 8.9471 14.6631C9.00741 14.7979 9.0233 14.9463 8.99274 15.0895C8.96219 15.2327 8.88658 15.3642 8.77549 15.4675C8.6644 15.5707 8.52284 15.641 8.36873 15.6693C8.21463 15.6977 8.05492 15.683 7.90985 15.6269C7.76479 15.5709 7.64088 15.4761 7.55385 15.3546C7.46682 15.233 7.42058 15.0902 7.42098 14.9442C7.42152 14.7493 7.50507 14.5626 7.65338 14.4248C7.80168 14.287 8.00267 14.2093 8.2124 14.2088ZM8.2124 9.70559C8.36942 9.70522 8.52303 9.74814 8.65378 9.82893C8.78453 9.90972 8.88654 10.0247 8.94691 10.1594C9.00728 10.2941 9.02328 10.4424 8.9929 10.5856C8.96251 10.7287 8.8871 10.8603 8.77622 10.9636C8.66533 11.0669 8.52395 11.1373 8.36998 11.1659C8.21601 11.1945 8.05637 11.18 7.91127 11.1243C7.76616 11.0685 7.64212 10.974 7.55484 10.8527C7.46757 10.7314 7.42098 10.5888 7.42098 10.4429C7.42098 10.2477 7.5043 10.0604 7.65266 9.92221C7.80102 9.784 8.00232 9.70609 8.2124 9.70559Z" fill="#737373"/>
</g>
<defs>
<clipPath id="clip0_150_69">
<rect width="25" height="22" fill="white" transform="translate(3 4)"/>
</clipPath>
</defs>
</svg>
