<svg width="506" height="506" viewBox="0 0 506 506" fill="none" xmlns="http://www.w3.org/2000/svg">
<path d="M480.545 283.104C480.545 269.026 469.119 257.617 455.042 257.617H50.9415C36.8638 257.617 25.4546 269.026 25.4546 283.104V299.307H56.9018V468.192C56.9018 489.093 73.8399 505.999 94.6928 505.999H412.073C432.974 505.999 449.864 489.045 449.864 468.192V299.291H480.545V283.104Z" fill="#737373"/>
<path d="M349.275 188.444H372.221C389.064 188.444 402.742 174.606 402.742 157.779V24.6081C402.742 11.0257 391.604 0 377.99 0C364.376 0 353.206 11.0257 353.206 24.6081V138.924H331.522C325.562 134.993 318.467 132.644 310.797 132.644H195.491C174.158 132.644 156.693 150.253 156.693 171.586V232.467H349.275V188.444Z" fill="#737373"/>
<path d="M253.176 110.657C283.728 110.657 308.496 85.8894 308.496 55.3369C308.496 24.7843 283.728 0.0166016 253.176 0.0166016C222.623 0.0166016 197.855 24.7843 197.855 55.3369C197.855 85.8894 222.623 110.657 253.176 110.657Z" fill="#737373"/>
</svg>
