<svg width="24" height="24" viewBox="0 0 24 24" fill="none" xmlns="http://www.w3.org/2000/svg">
<path d="M1.73703 24C1.27382 24 0.868516 23.8263 0.52111 23.4789C0.173703 23.1315 0 22.7262 0 22.263V4.89264C0 4.42943 0.173703 4.02413 0.52111 3.67672C0.868516 3.32931 1.27382 3.15561 1.73703 3.15561H13.462L11.725 4.89264H1.73703V22.263H19.1074V12.1882L20.8444 10.4511V22.263C20.8444 22.7262 20.6707 23.1315 20.3233 23.4789C19.9759 23.8263 19.5706 24 19.1074 24H1.73703ZM15.6912 3.38721L16.9361 4.60314L8.68516 12.8251V15.3148H11.146L19.4258 7.03498L20.6417 8.25091L11.8697 17.0519H6.94813V12.1303L15.6912 3.38721ZM20.6417 8.25091L15.6912 3.38721L18.5862 0.492159C18.9144 0.164053 19.3245 0 19.8166 0C20.3088 0 20.7189 0.173703 21.047 0.52111L23.4789 2.98191C23.807 3.32931 23.9711 3.73945 23.9711 4.2123C23.9711 4.68516 23.7973 5.08565 23.4499 5.41375L20.6417 8.25091Z" fill="#001A72"/>
</svg>
