<svg width="534" height="534" viewBox="0 0 534 534" fill="none" xmlns="http://www.w3.org/2000/svg">
<path d="M375.469 4.88965V116.813H487.392L375.469 4.88965Z" fill="#737373"/>
<path d="M367.125 133.5C362.511 133.5 358.781 129.77 358.781 125.156V0H58.4062C39.9582 0 25.0312 14.927 25.0312 33.375V500.625C25.0312 519.073 39.9582 534 58.4062 534H458.906C477.354 534 492.281 519.073 492.281 500.625V133.5H367.125ZM116.812 150.188H250.312C254.927 150.188 258.656 153.917 258.656 158.531C258.656 163.145 254.927 166.875 250.312 166.875H116.812C112.198 166.875 108.469 163.145 108.469 158.531C108.469 153.917 112.198 150.188 116.812 150.188ZM400.5 425.531H116.812C112.198 425.531 108.469 421.802 108.469 417.188C108.469 412.573 112.198 408.844 116.812 408.844H400.5C405.114 408.844 408.844 412.573 408.844 417.188C408.844 421.802 405.114 425.531 400.5 425.531ZM400.5 375.469H116.812C112.198 375.469 108.469 371.739 108.469 367.125C108.469 362.511 112.198 358.781 116.812 358.781H400.5C405.114 358.781 408.844 362.511 408.844 367.125C408.844 371.739 405.114 375.469 400.5 375.469ZM400.5 325.406H116.812C112.198 325.406 108.469 321.677 108.469 317.062C108.469 312.448 112.198 308.719 116.812 308.719H400.5C405.114 308.719 408.844 312.448 408.844 317.062C408.844 321.677 405.114 325.406 400.5 325.406ZM400.5 275.344H116.812C112.198 275.344 108.469 271.614 108.469 267C108.469 262.386 112.198 258.656 116.812 258.656H400.5C405.114 258.656 408.844 262.386 408.844 267C408.844 271.614 405.114 275.344 400.5 275.344ZM400.5 225.281H116.812C112.198 225.281 108.469 221.552 108.469 216.938C108.469 212.323 112.198 208.594 116.812 208.594H400.5C405.114 208.594 408.844 212.323 408.844 216.938C408.844 221.552 405.114 225.281 400.5 225.281Z" fill="#737373"/>
</svg>
