<svg width="532" height="532" viewBox="0 0 532 532" fill="none" xmlns="http://www.w3.org/2000/svg">
<path d="M264.961 4.15625C239.047 4.15625 217.933 25.27 217.933 51.1842C217.933 77.0777 238.839 98.1914 264.961 98.1914C290.667 98.1914 311.968 77.0777 311.968 51.1842C311.968 25.27 290.875 4.15625 264.961 4.15625ZM324.188 108.062H205.734C173.336 108.062 147.547 135.93 147.547 168.328V234.828H189.109V178.719C189.109 175.165 191.79 172.484 195.344 172.484C198.897 172.484 201.578 175.165 201.578 178.719V234.828H328.344V178.719C328.344 175.165 331.025 172.484 334.578 172.484C338.132 172.484 340.812 175.165 340.812 178.719V234.828H382.375V168.328C382.375 136.138 356.378 108.062 324.188 108.062ZM24.9375 245.219V301.328H72.7344V527.844H457.188V301.328H507.062V245.219H24.9375ZM265.855 489.087C212.675 489.087 169.513 445.924 169.513 392.745C169.513 339.275 212.384 295.821 265.855 295.821C319.325 295.821 362.487 338.984 362.487 392.454C362.487 445.924 319.034 489.087 265.855 489.087Z" fill="#737373"/>
<path d="M221 342H255.125M255.125 342C273.972 342 289.25 357.278 289.25 376.125C289.25 394.972 273.972 410.25 255.125 410.25H221L274.083 463.333M255.125 342H312M221 376.125H312" stroke="#737373" stroke-width="15.1667" stroke-linecap="round" stroke-linejoin="round"/>
</svg>
