<svg width="44" height="32" viewBox="0 0 44 32" fill="none" xmlns="http://www.w3.org/2000/svg">
<path d="M20.5 31.9998H10.55C7.61667 31.9998 5.125 30.9748 3.075 28.9248C1.025 26.8748 0 24.3831 0 21.4498C0 18.8498 0.833333 16.5665 2.5 14.5998C4.16667 12.6331 6.28333 11.4498 8.85 11.0498C9.51667 7.81647 11.0833 5.1748 13.55 3.1248C16.0167 1.0748 18.8667 0.0498047 22.1 0.0498047C25.8333 0.0498047 28.9833 1.40814 31.55 4.1248C34.1167 6.84147 35.4 10.0998 35.4 13.8998V15.0998C37.8 15.0331 39.8333 15.8081 41.5 17.4248C43.1667 19.0415 44 21.0831 44 23.5498C44 25.8498 43.1667 27.8331 41.5 29.4998C39.8333 31.1665 37.85 31.9998 35.55 31.9998H23.5V16.0998L27.65 20.2498L29.8 18.0998L22 10.2998L14.2 18.0998L16.35 20.2498L20.5 16.0998V31.9998Z" fill="#436DFA"/>
</svg>
