<svg width="410" height="546" viewBox="0 0 410 546" fill="none" xmlns="http://www.w3.org/2000/svg">
<path d="M229.244 18.7871H102.97C73.5033 18.7871 58.7697 18.7871 47.515 24.5218C37.6149 29.5659 29.5659 37.6149 24.5218 47.515C18.7871 58.7698 18.7871 73.5033 18.7871 102.97V408.133C18.7871 437.599 18.7871 452.334 24.5218 463.588C29.5659 473.488 37.6149 481.538 47.515 486.581C58.7697 492.316 73.5033 492.316 102.97 492.316H202.937M229.244 18.7871L387.087 176.63M229.244 18.7871V134.539C229.244 149.272 229.244 156.639 232.112 162.266C234.635 167.216 238.657 171.24 243.608 173.763C249.235 176.63 256.601 176.63 271.336 176.63H387.087M387.087 176.63V202.937" stroke="#737373" stroke-width="36.7904" stroke-linecap="round" stroke-linejoin="round"/>
<path d="M326.428 527.143V298.627M326.428 298.627L392.111 364.31M326.428 298.627L260.745 364.31" stroke="#737373" stroke-width="35.4383" stroke-linecap="round" stroke-linejoin="round"/>
</svg>
